<?xml version="1.0" encoding="utf-8"?>
<!-- Generator: Adobe Illustrator 24.2.3, SVG Export Plug-In . SVG Version: 6.00 Build 0)  -->
<svg version="1.1" xmlns="http://www.w3.org/2000/svg" xmlns:xlink="http://www.w3.org/1999/xlink" x="0px" y="0px"
	 viewBox="0 0 1400 515" style="enable-background:new 0 0 1400 515;" xml:space="preserve">
<style type="text/css">
	.st0{fill:#F1F1F1;}
	.st1{fill:#343434;}
	.st2{fill:none;stroke:#666666;stroke-width:2;stroke-linecap:round;stroke-linejoin:round;stroke-miterlimit:10;}
	.st3{fill:#814B99;}
	.st4{fill:#682A7A;}
	.st5{fill:#4285F4;}
	.st6{fill:#FFFFFF;}
	.st7{fill:#4FD928;}
	.st8{fill:#CCCCCC;}
	.st9{fill:none;stroke:#CCCCCC;stroke-width:4;stroke-miterlimit:10;}
	.st10{fill:none;stroke:#666666;stroke-width:2;stroke-linecap:round;stroke-miterlimit:10;}
	.st11{fill:none;stroke:#326DE6;stroke-width:4;stroke-linecap:round;stroke-miterlimit:10;stroke-dasharray:0.028,8.25052;}
	.st12{fill:#326DE6;}
	.st13{fill:#373535;}
	.st14{fill:#D86613;}
	.st15{fill:none;stroke:#343434;stroke-width:3.44134;stroke-linecap:round;stroke-miterlimit:10;}
	.st16{fill:none;stroke:#999999;stroke-width:2.58101;stroke-linecap:round;stroke-linejoin:round;stroke-miterlimit:10;}
	.st17{fill:none;stroke:#666666;stroke-width:2.58101;stroke-linecap:round;stroke-linejoin:round;stroke-miterlimit:10;}
	.st18{fill:#474545;}
	.st19{fill:none;stroke:#343434;stroke-width:2.58101;stroke-linejoin:round;stroke-miterlimit:10;}
	.st20{fill:none;stroke:#343434;stroke-width:2.58101;stroke-miterlimit:10;}
	.st21{fill:#EE0000;}
	.st22{fill:none;stroke:#FFFFFF;stroke-width:3;stroke-linecap:round;stroke-miterlimit:10;}
	.st23{fill:none;stroke:#009639;stroke-width:3;stroke-linecap:round;stroke-miterlimit:10;stroke-dasharray:0.02499,6.99615;}
	.st24{fill:#00953B;}
	.st25{fill:none;stroke:#FFFFFF;stroke-width:3.02786;stroke-linecap:round;stroke-linejoin:round;stroke-miterlimit:10;}
	.st26{fill:none;stroke:#FFFFFF;stroke-width:2.01353;stroke-linecap:round;stroke-linejoin:round;stroke-miterlimit:10;}
	.st27{fill:none;stroke:#009639;stroke-width:2;stroke-linecap:round;stroke-miterlimit:10;}
	.st28{fill:none;stroke:#009639;stroke-width:2;stroke-linecap:round;stroke-linejoin:round;stroke-miterlimit:10;}
	.st29{fill:#0075A8;}
	.st30{fill:#FFFFFF;stroke:#343434;stroke-width:3;stroke-miterlimit:10;}
	.st31{fill:none;stroke:#343434;stroke-width:2;stroke-linecap:round;stroke-miterlimit:10;}
	.st32{fill:none;stroke:#343434;stroke-width:2;stroke-linejoin:round;stroke-miterlimit:10;}
	.st33{fill:none;stroke:#343434;stroke-width:2;stroke-linecap:round;stroke-linejoin:round;stroke-miterlimit:10;}
	.st34{fill:#FFFFFF;stroke:#343434;stroke-width:2;stroke-linecap:round;stroke-linejoin:round;stroke-miterlimit:10;}
</style>
<g id="Background">
	<rect class="st0" width="1400" height="515"/>
</g>
<g id="Art">
</g>
<g id="Layer_1">
	<g>
		<g>
			<path class="st1" d="M234.09033,310.3584c0-4.51074,3.41064-7.59082,7.70117-7.59082c3.34473,0,5.21484,1.75977,6.24902,3.58594
				l-2.68457,1.32031c-0.61621-1.1875-1.93604-2.13379-3.56445-2.13379c-2.55225,0-4.48877,2.0459-4.48877,4.81836
				s1.93652,4.81836,4.48877,4.81836c1.62842,0,2.94824-0.92383,3.56445-2.13379l2.68457,1.29785
				c-1.05615,1.82617-2.9043,3.6084-6.24902,3.6084C237.50098,317.94922,234.09033,314.86914,234.09033,310.3584z"/>
			<path class="st1" d="M249.84229,303.00977h2.79443v14.67578h-2.79443V303.00977z"/>
			<path class="st1" d="M255.12207,303.82324c0-0.92383,0.77002-1.67188,1.67236-1.67188c0.92383,0,1.67236,0.74805,1.67236,1.67188
				c0,0.9248-0.74854,1.67285-1.67236,1.67285C255.89209,305.49609,255.12207,304.74805,255.12207,303.82324z M255.4082,307.05762
				h2.79443v10.62793h-2.79443V307.05762z"/>
			<path class="st1" d="M265.79297,306.79395c3.16846,0,5.32471,2.37598,5.32471,5.85254v0.61621h-7.89941
				c0.17627,1.34277,1.25439,2.46484,3.05859,2.46484c0.99023,0,2.15625-0.39648,2.83838-1.05664l1.23242,1.80469
				c-1.05615,0.96777-2.72852,1.47363-4.37891,1.47363c-3.23438,0-5.67676-2.17773-5.67676-5.58887
				C260.29199,309.28027,262.55811,306.79395,265.79297,306.79395z M263.17432,311.37109h5.23682
				c-0.06592-1.0127-0.77002-2.35449-2.61816-2.35449C264.05469,309.0166,263.30664,310.31445,263.17432,311.37109z"/>
			<path class="st1" d="M280.3125,311.26074c0-1.47461-0.77002-1.98047-1.95801-1.98047c-1.1001,0-1.9585,0.61621-2.42041,1.25391
				v7.15137h-2.79443v-10.62793h2.79443v1.38672c0.68213-0.81445,1.98047-1.65039,3.71826-1.65039
				c2.33252,0,3.45459,1.32031,3.45459,3.38867v7.50293h-2.79443V311.26074z"/>
			<path class="st1" d="M286.42822,315.04492V309.5h-1.76074v-2.44238h1.76074v-2.9043h2.81641v2.9043h2.15625V309.5h-2.15625
				v4.79688c0,0.66016,0.35156,1.16602,0.96777,1.16602c0.41797,0,0.81445-0.15332,0.96826-0.30762l0.59424,2.1123
				c-0.41797,0.37402-1.1665,0.68164-2.33252,0.68164C287.48389,317.94922,286.42822,316.9375,286.42822,315.04492z"/>
			<path class="st1" d="M293.59961,314.34082c0.77002,0.72656,2.354,1.45215,3.67432,1.45215
				c1.21045,0,1.78223-0.41797,1.78223-1.07812c0-0.74805-0.92383-1.01172-2.13428-1.25391
				c-1.82617-0.35156-4.18066-0.79199-4.18066-3.32227c0-1.78223,1.5625-3.34473,4.35693-3.34473
				c1.8042,0,3.23438,0.61621,4.29053,1.45215l-1.12207,1.91406c-0.63818-0.68164-1.84863-1.23145-3.14648-1.23145
				c-1.01221,0-1.67236,0.37402-1.67236,0.98926c0,0.66016,0.83594,0.90234,2.02441,1.14453
				c1.82617,0.35254,4.26855,0.83594,4.26855,3.47656c0,1.93652-1.65039,3.41016-4.59863,3.41016
				c-1.84814,0-3.63086-0.61523-4.75293-1.64941L293.59961,314.34082z"/>
		</g>
		<g>
			<g>
				<line class="st2" x1="327.88193" y1="231.0191" x2="405.07217" y2="231.0191"/>
			</g>
			<g>
				<line class="st2" x1="405.07217" y1="231.0191" x2="399.4295" y2="236.66176"/>
				<line class="st2" x1="405.07217" y1="231.0191" x2="399.4295" y2="225.37645"/>
			</g>
		</g>
		<g>
			<path class="st3" d="M1024.39941,214.81151l-13.82587,5.33936v-22.06573l13.82587,4.79559V214.81151z"/>
			<path class="st4" d="M1005.20123,216.9539l-0.90613-0.29678v-15.19368l0.90613-0.18137l0.90649-0.36273l1.08752-0.3624v16.92424
				l-1.104-0.37923L1005.20123,216.9539z M1001.93835,215.88254l-0.67566-0.18137v-13.29826l0.72546-0.18137l0.72479-0.18137
				l0.70862-0.18103v14.58397l-0.70862-0.18137L1001.93835,215.88254z M999.2525,215.22336l-0.56061-0.18137v-11.97992
				l0.54413-0.18135l0.54376-0.18137l0.56024-0.18137v13.01863l-0.47815-0.18137L999.2525,215.22336z M998.18115,201.87531v14.36996
				l10.21704,3.90559v-21.91736L998.18115,201.87531z"/>
			<path class="st3" d="M1056.56677,214.81151l-13.82581,5.33936v-22.06573l13.82581,4.79559V214.81151z"/>
			<path class="st4" d="M1037.35217,216.9539l-0.90625-0.36273v-15.12773l0.90625-0.18137l0.90649-0.36273l1.03796-0.3624v16.92424
				l-1.03796-0.37923L1037.35217,216.9539z M1034.07275,215.88254l-0.7251-0.18137v-13.29826l0.72546-0.18137l0.70825-0.18137
				l0.7251-0.18103v14.58397l-0.7251-0.18137L1034.07275,215.88254z M1031.37012,215.1739l-0.54382-0.18137v-11.93047
				l0.54407-0.18135l0.54382-0.18137l0.5437-0.18137v13.01863l-0.54407-0.18135L1031.37012,215.1739z M1030.33203,201.80936
				v14.43591l10.23352,3.90559v-21.91736L1030.33203,201.80936z"/>
			<path class="st3" d="M1024.39941,258.61322l-13.82587,5.32254v-22.06541l13.82587,4.81175V258.61322L1024.39941,258.61322z"/>
			<path class="st4" d="M1005.20123,260.7388l-0.90613-0.3624v-15.12773l0.90613-0.18137l0.89001-0.37921l1.08752-0.3624v16.9572
				l-1.08752-0.34625L1005.20123,260.7388z M1001.93835,259.66776l-0.67566-0.24731v-13.2821l0.72546-0.18137l0.72479-0.18137
				l0.70862-0.18103v14.63345l-0.70862-0.18137L1001.93835,259.66776z M999.2525,258.95914l-0.56061-0.16489v-11.93079
				l0.54413-0.18137l0.54376-0.18137l0.56024-0.18137v12.98569l-0.47815-0.16489L999.2525,258.95914z M998.18115,245.61107v14.43559
				l10.21704,3.90558v-21.91701L998.18115,245.61107z"/>
			<path class="st3" d="M1056.56677,258.61322l-13.82581,5.32254v-22.06541l13.82581,4.81175V258.61322L1056.56677,258.61322z"/>
			<path class="st4" d="M1037.35217,260.7388l-0.90625-0.3624v-15.12773l0.90625-0.18137l0.90649-0.36273l1.08752-0.3624v16.92424
				l-1.08752-0.34625L1037.35217,260.7388z M1034.07275,259.66776l-0.7251-0.18137v-13.34805l0.72546-0.18137l0.70825-0.18137
				l0.7251-0.18103v14.63345l-0.7251-0.18137L1034.07275,259.66776z M1031.37012,258.95914l-0.54382-0.18137v-11.91431
				l0.54407-0.18137l0.54382-0.18137l0.5437-0.18137v12.98569l-0.54407-0.18137L1031.37012,258.95914z M1030.33203,245.61107
				v14.43559l10.23352,3.90558v-21.91701L1030.33203,245.61107z"/>
			<path class="st3" d="M1041.47205,236.71236l-13.64478,5.15799V219.9695l13.64478,4.82823V236.71236z"/>
			<path class="st4" d="M1022.24091,238.83827l-0.90649-0.36273v-15.1274l0.90649-0.18137l0.90613-0.36273l1.08783-0.3624v16.92422
				l-1.07135-0.36273L1022.24091,238.83827z M1018.97797,237.76691l-0.72546-0.18137v-13.33157l0.72546-0.18137l0.72516-0.18137
				l0.70862-0.18103v14.63344l-0.70898-0.18137L1018.97797,237.76691z M1016.29181,236.87723l-0.56055-0.16487v-11.93111
				l0.54407-0.18137l0.54407-0.18105l0.54346-0.18137v12.98567l-0.54376-0.18137L1016.29181,236.87723z M1015.23724,223.52884
				v14.43591l10.28302,3.92209V219.953L1015.23724,223.52884z"/>
			<path class="st3" d="M1009.50256,236.71236l-13.66138,5.15799V219.9695l13.66138,4.82823V236.71236z"/>
			<path class="st4" d="M990.27136,238.83827l-0.9068-0.36273v-15.1274l0.9068-0.18137l0.90613-0.36273l1.08752-0.3624v16.92422
				l-1.08752-0.36273L990.27136,238.83827z M987.02496,237.76691l-0.72546-0.18137v-13.33157l0.72546-0.18137l0.72479-0.18137
				l0.69244-0.09859v14.53452l-0.70892-0.18137L987.02496,237.76691z M984.32227,236.87723l-0.54407-0.18135v-11.91463
				l0.54407-0.18137l0.57678-0.19753l0.54376-0.18137v12.98567l-0.54413-0.14839L984.32227,236.87723z M983.2674,223.52884v14.43591
				l10.21741,3.92209V219.953L983.2674,223.52884z"/>
			<path class="st3" d="M1073.07886,236.71236l-13.62805,5.15799V219.9695l13.62805,4.82823V236.71236z M1010.57355,198.08513
				v22.06573l13.82587-5.33937v-11.93077L1010.57355,198.08513z M1042.74097,198.08513v22.06573l13.82593-5.33937v-11.93077
				L1042.74097,198.08513z M1010.57361,241.87035v22.06541l13.82581-5.32254v-11.93111l-13.82587-4.81175L1010.57361,241.87035z
				 M1042.74097,241.87035v22.06541l13.82593-5.32254v-11.93111l-13.82593-4.81175V241.87035z M1027.82727,219.9695v21.90085
				l13.64478-5.15799v-11.91463L1027.82727,219.9695L1027.82727,219.9695z M995.84119,219.9695v21.90085l13.66138-5.15799v-11.91463
				L995.84119,219.9695z"/>
			<path class="st3" d="M1059.45081,219.9695v21.90085l13.62805-5.15799v-11.91463L1059.45081,219.9695z"/>
			<path class="st4" d="M1053.89709,238.83827l-0.90613-0.36273v-15.1274l0.90613-0.18137l0.90649-0.36273l1.08752-0.3624v16.92422
				l-1.104-0.36273L1053.89709,238.83827z M1050.65076,237.76691l-0.72485-0.18137v-13.33157l0.72485-0.18137l0.70898-0.18137
				l0.72473-0.18103v14.63344l-0.7251-0.18137L1050.65076,237.76691z M1047.94836,236.87723l-0.54407-0.18135v-11.91463
				l0.54407-0.18137l0.54382-0.18105l0.5437-0.18137v12.98567l-0.54407-0.18137L1047.94836,236.87723z M1046.89355,223.52884
				v14.43591l10.23352,3.92209V219.953L1046.89355,223.52884z"/>
		</g>
		<g>
			<path class="st5" d="M1069.98047,342.63281l-17.58276-30.63397c-1.34583-2.39868-3.86584-3.90048-6.61597-3.9426h-35.25671
				c-2.75012,0.04211-5.2702,1.54391-6.61597,3.9426l-17.58282,30.54337c-1.35938,2.37173-1.35938,5.28641,0,7.65814
				l17.58282,30.81516c1.33673,2.42639,3.84772,3.97427,6.61597,4.07834h35.25635c2.77039-0.09671,5.28479-1.64664,6.61597-4.07834
				l17.6283-30.63358c1.36804-2.40628,1.35071-5.35907-0.04553-7.74911H1069.98047z"/>
			<path id="art_5_" class="st6" d="M1044.87524,335.83527l-15.8606-9.15402c-0.56262-0.31732-1.25024-0.31732-1.81287,0
				l-15.8606,9.15402c-0.56348,0.32907-0.90875,0.93359-0.90601,1.58612v18.30768c0.00964,0.63727,0.35382,1.22244,0.90601,1.54065
				l15.8606,9.15402c0.56262,0.31732,1.25024,0.31732,1.81287,0l15.8606-9.15402c0.56348-0.32907,0.90881-0.93359,0.90613-1.58612
				v-18.26221C1045.79248,336.76666,1045.44495,336.15823,1044.87524,335.83527z M1042.74548,353.96173l-5.52869-3.17227v-8.42883
				l-8.15698,4.66782v9.47095l7.29602-4.21442l5.52869,3.17227l-13.68567,7.9303l-13.68536-7.9303l5.52838-3.17227l7.29602,4.21442
				v-9.42584l-8.15698-4.66742v8.3837l-5.52832,3.17191v-15.81552l13.6853-7.9303v6.38968l-7.29602,4.21439l8.15698,4.66745
				l8.15698-4.66745l-7.29602-4.21439v-6.38968l13.68567,7.9303V353.96173z"/>
		</g>
		<g>
			<path class="st7" d="M1135.91748,385.09375l-45.96338-56.97195l16.18921-20.06546h39.46094l15.70691,19.23566l-25.63391,31.6731
				l-7.57727-9.39194l17.69763-21.9213l-5.8584-7.51892h-28.38257l-6.44507,7.98886l30.80591,38.18518l30.80884-38.1871
				l-16.0686-20.06354h15.03503l16.18921,20.06546L1135.91748,385.09375z"/>
		</g>
		<g>
			<path class="st8" d="M875.15967,470.46091c0,7.94443-6.5,14.44443-14.44446,14.44443H520.68018
				c-7.94446,0-14.44443-6.5-14.44443-14.44443V44.53905c0-7.94443,6.49997-14.44442,14.44443-14.44442h340.03503
				c7.94446,0,14.44446,6.49999,14.44446,14.44442V470.46091z"/>
			<path class="st9" d="M875.15967,470.46091c0,7.94443-6.5,14.44443-14.44446,14.44443H520.68018
				c-7.94446,0-14.44443-6.5-14.44443-14.44443V44.53905c0-7.94443,6.49997-14.44442,14.44443-14.44442h340.03503
				c7.94446,0,14.44446,6.49999,14.44446,14.44442V470.46091z"/>
		</g>
		<g>
			<path class="st10" d="M976.24921,67.31525h-15.69165c-7.25842,0-13.19714,5.93872-13.19714,13.19715v301.01257
				c0,7.25842,5.93872,13.19714,13.19714,13.19714h15.69165"/>
		</g>
		<g>
			<g>
				<line class="st2" x1="885.15967" y1="229.34123" x2="937.50342" y2="229.34123"/>
			</g>
			<g>
				<line class="st2" x1="937.50342" y1="229.34123" x2="931.86072" y2="234.98389"/>
				<line class="st2" x1="937.50342" y1="229.34123" x2="931.86072" y2="223.69858"/>
			</g>
		</g>
		<g>
			<path class="st11" d="M875.15967,470.46094c0,7.94434-6.5,14.44434-14.44446,14.44434H520.68018
				c-7.94446,0-14.44446-6.5-14.44446-14.44434V44.53906c0-7.94434,6.5-14.44434,14.44446-14.44434h340.03503
				c7.94446,0,14.44446,6.5,14.44446,14.44434V470.46094z"/>
		</g>
		<g>
			<path class="st12" d="M674.00616,451.13492l-4.28644-18.62036c-0.20575-0.96017-0.8916-1.78317-1.78314-2.22894
				l-17.35162-8.26431c-0.4458-0.20575-0.92584-0.30862-1.40594-0.30862s-0.99445,0.10287-1.44025,0.27435l-17.35156,8.29858
				c-0.8916,0.4115-1.54315,1.2345-1.7832,2.22894l-4.28644,18.62036c-0.20575,0.99448,0.0343,2.02322,0.65155,2.81192
				l12.00208,14.91687c0.61725,0.78873,1.57739,1.2345,2.5719,1.2345h19.23761c0.99445,0,1.95459-0.44577,2.57184-1.2345
				l12.00208-14.91687C674.00616,453.15814,674.24622,452.12939,674.00616,451.13492z"/>
			<path class="st6" d="M666.56488,449.6604L666.56488,449.6604L666.56488,449.6604
				C666.53058,449.6604,666.53058,449.6604,666.56488,449.6604h-0.0343c-0.03424,0-0.06854,0-0.06854-0.0343
				c-0.0686,0-0.13721-0.0343-0.20575-0.0343c-0.24005-0.03427-0.4458-0.06857-0.65155-0.06857c-0.10291,0-0.20575,0-0.3429-0.0343
				h-0.0343c-0.72015-0.06857-1.3031-0.13715-1.85175-0.30862c-0.24005-0.10287-0.30865-0.24002-0.37726-0.3772
				c0-0.0343-0.03424-0.0343-0.03424-0.06857l0,0l-0.4458-0.13718c0.20575-1.57742,0.13715-3.22342-0.24005-4.83514
				c-0.3772-1.61169-1.02875-3.12051-1.92035-4.49219l0.3429-0.30862v-0.0686c0-0.17145,0.0343-0.3429,0.17151-0.51437
				c0.4115-0.3772,0.92584-0.68582,1.54309-1.06302l0,0c0.10291-0.0686,0.20575-0.10287,0.30865-0.17148
				c0.20575-0.10287,0.3772-0.20575,0.58295-0.3429c0.0343-0.0343,0.10284-0.0686,0.17145-0.13718
				c0.0343-0.0343,0.0686-0.0343,0.0686-0.06857l0,0c0.48004-0.4115,0.58295-1.09735,0.24005-1.54312
				c-0.17151-0.24005-0.4801-0.37723-0.78876-0.37723c-0.27429,0-0.51434,0.10287-0.75439,0.27435l0,0l0,0
				c-0.0343,0.03427-0.0343,0.03427-0.0686,0.06857c-0.06854,0.0343-0.10284,0.10287-0.17145,0.13718
				c-0.17145,0.17145-0.30859,0.30862-0.4458,0.48007c-0.06854,0.06857-0.13715,0.17145-0.23999,0.24005l0,0
				c-0.4801,0.51437-0.9259,0.92587-1.3717,1.2345c-0.10284,0.06857-0.20575,0.10287-0.30859,0.10287
				c-0.0686,0-0.13721,0-0.20575-0.0343h-0.0686l0,0l-0.4115,0.27432c-0.4458-0.48007-0.9259-0.89157-1.40594-1.30307
				c-2.0575-1.61169-4.56079-2.60617-7.16699-2.84622l-0.0343-0.44577c-0.03424-0.0343-0.03424-0.0343-0.06854-0.0686
				c-0.10291-0.10287-0.24005-0.20575-0.27435-0.44577c-0.0343-0.54868,0.0343-1.16592,0.10291-1.85175v-0.0343
				c0-0.10287,0.03424-0.24005,0.06854-0.34293c0.0343-0.20575,0.0686-0.4115,0.10291-0.65152v-0.20575v-0.10287l0,0l0,0
				c0-0.61728-0.4801-1.13165-1.06305-1.13165c-0.27435,0-0.54865,0.13718-0.75439,0.34293s-0.30865,0.48007-0.30865,0.78873l0,0
				l0,0v0.06857v0.20575c0,0.24005,0.0343,0.4458,0.10291,0.65155c0.03424,0.10287,0.03424,0.20575,0.06854,0.3429v0.0343
				c0.0686,0.68582,0.17145,1.30307,0.10291,1.85175c-0.0343,0.24005-0.17145,0.34293-0.27435,0.4458
				c-0.0343,0.03427-0.0343,0.03427-0.0686,0.06857l0,0l-0.03424,0.4458c-0.61725,0.06857-1.2345,0.13715-1.85175,0.27432
				c-2.6405,0.58295-4.97229,1.92035-6.78979,3.84067l-0.3429-0.24005h-0.0686c-0.06854,0-0.13715,0.0343-0.20575,0.0343
				c-0.10284,0-0.20575-0.0343-0.30859-0.10287c-0.4458-0.30862-0.8916-0.75443-1.3717-1.2688l0,0
				c-0.06854-0.06857-0.13715-0.17145-0.23999-0.24002c-0.13721-0.17148-0.27435-0.30862-0.4458-0.4801
				c-0.0343-0.03427-0.10291-0.06857-0.17145-0.13715c-0.0343-0.0343-0.0686-0.0343-0.0686-0.0686l0,0
				c-0.20575-0.17145-0.4801-0.27432-0.75446-0.27432c-0.30859,0-0.61725,0.13718-0.7887,0.3772
				c-0.3429,0.4458-0.24005,1.13162,0.24005,1.54312l0,0l0,0c0.0343,0,0.0343,0.0343,0.0686,0.0343
				c0.06854,0.0343,0.10284,0.10287,0.17145,0.13718c0.20575,0.13715,0.3772,0.24002,0.58295,0.3429
				c0.10291,0.0343,0.20575,0.10287,0.30865,0.17148l0,0c0.61725,0.3772,1.13159,0.68582,1.54309,1.06302
				c0.17145,0.17148,0.17145,0.34293,0.17145,0.51437v0.0686l0,0l0.34296,0.30862c-0.0686,0.10287-0.13721,0.17145-0.17145,0.27432
				c-1.7146,2.70905-2.36615,5.89816-1.92035,9.05301l-0.4458,0.13718c0,0.03427-0.0343,0.03427-0.0343,0.06857
				c-0.0686,0.13718-0.17145,0.27432-0.3772,0.3772c-0.5144,0.17148-1.13165,0.24005-1.85175,0.30862h-0.0343
				c-0.10284,0-0.24005,0-0.3429,0.0343c-0.20575,0-0.4115,0.0343-0.65155,0.06857c-0.0686,0-0.13715,0.0343-0.20575,0.0343
				c-0.0343,0-0.0686,0-0.10291,0.0343l0,0l0,0c-0.61725,0.13715-0.99445,0.72012-0.89154,1.26877
				c0.10284,0.4801,0.54865,0.78873,1.09729,0.78873c0.10291,0,0.17151,0,0.27435-0.0343l0,0l0,0c0.0343,0,0.0686,0,0.0686-0.0343
				c0.06854,0,0.13715-0.03427,0.20575-0.03427c0.24005-0.0686,0.4115-0.13718,0.61725-0.24005
				c0.10284-0.0343,0.20575-0.10287,0.30859-0.13718h0.0343c0.65155-0.24002,1.2345-0.44577,1.78314-0.51437h0.0686
				c0.20575,0,0.34296,0.10287,0.4458,0.17148c0.0343,0,0.0343,0.03427,0.0686,0.03427l0,0l0.48004-0.06857
				c0.823,2.53757,2.40045,4.80084,4.49225,6.44684c0.48004,0.3772,0.96014,0.68582,1.47455,0.99445l-0.20575,0.4458
				c0,0.0343,0.03424,0.0343,0.03424,0.06857c0.0686,0.13718,0.13721,0.30862,0.0686,0.54868
				c-0.20575,0.51437-0.51434,1.02875-0.8916,1.61169v0.0343c-0.06854,0.10287-0.13715,0.17145-0.20575,0.27432
				c-0.13715,0.17148-0.23999,0.34293-0.3772,0.54868c-0.0343,0.0343-0.06854,0.10287-0.10284,0.17145
				c0,0.0343-0.0343,0.0686-0.0343,0.0686l0,0l0,0c-0.27435,0.58295-0.0686,1.2345,0.4458,1.47452
				c0.13715,0.0686,0.27429,0.10287,0.4115,0.10287c0.4115,0,0.823-0.27432,1.02875-0.65152l0,0l0,0
				c0-0.0343,0.0343-0.0686,0.0343-0.0686c0.03424-0.06857,0.06854-0.13715,0.10284-0.17145
				c0.10291-0.24005,0.13715-0.4115,0.20575-0.61725c0.0343-0.10287,0.0686-0.20575,0.10291-0.30862l0,0
				c0.23999-0.68582,0.4115-1.2345,0.72009-1.71457c0.13715-0.20575,0.30865-0.24005,0.4458-0.30862
				c0.0343,0,0.0343,0,0.0686-0.0343l0,0l0.23999-0.4458c1.50885,0.58298,3.15485,0.8916,4.80084,0.8916
				c0.99445,0,2.02325-0.10287,2.9834-0.34293c0.61725-0.13718,1.2002-0.30862,1.78314-0.51437l0.20575,0.3772
				c0.0343,0,0.0343,0,0.0686,0.0343c0.17145,0.0343,0.30859,0.10287,0.4458,0.30862
				c0.27429,0.48007,0.4801,1.06305,0.72009,1.71457v0.0343c0.0343,0.10287,0.0686,0.20575,0.10291,0.30862
				c0.0686,0.20575,0.10284,0.4115,0.20575,0.61725c0.0343,0.06857,0.0686,0.10287,0.10284,0.17145
				c0,0.0343,0.0343,0.0686,0.0343,0.0686l0,0l0,0c0.20575,0.4115,0.61725,0.65152,1.02875,0.65152
				c0.13721,0,0.27435-0.03427,0.4115-0.10287c0.24005-0.13715,0.4458-0.3429,0.5144-0.61725
				c0.06854-0.27432,0.06854-0.58295-0.0686-0.85727l0,0l0,0c0-0.0343-0.0343-0.0343-0.0343-0.0686
				c-0.0343-0.06857-0.06854-0.13715-0.10284-0.17145c-0.10291-0.20575-0.24005-0.3772-0.3772-0.54868
				c-0.0686-0.10287-0.13721-0.17145-0.20575-0.27432v-0.0343c-0.37726-0.58295-0.72015-1.09732-0.8916-1.61169
				c-0.0686-0.24005,0-0.3772,0.0343-0.54868c0-0.03427,0.0343-0.03427,0.0343-0.06857l0,0l-0.17151-0.4115
				c1.8175-1.06305,3.3606-2.57187,4.52649-4.42365c0.61731-0.96014,1.09735-2.02319,1.44031-3.08624l0.4115,0.0686
				c0.03424,0,0.03424-0.0343,0.06854-0.0343c0.13721-0.06857,0.24005-0.17145,0.4458-0.17145h0.0686
				c0.54865,0.06857,1.13159,0.27432,1.78314,0.51437h0.0343c0.10291,0.03427,0.20575,0.10287,0.30865,0.13715
				c0.20575,0.10287,0.3772,0.17148,0.61725,0.24005c0.06854,0,0.13715,0.0343,0.20575,0.0343c0.03424,0,0.06854,0,0.10284,0.03427
				l0,0c0.10291,0.0343,0.17145,0.0343,0.27435,0.0343c0.51434,0,0.96014-0.34293,1.09729-0.7887
				C667.55933,450.38052,667.18213,449.83185,666.56488,449.6604L666.56488,449.6604z M650.68787,447.9801l-1.50885,0.72012
				l-1.50885-0.72012l-0.3772-1.61172l1.02875-1.30307h1.6803l1.02875,1.30307L650.68787,447.9801L650.68787,447.9801z
				 M659.638,444.41376c0.27429,1.16592,0.3429,2.33185,0.23999,3.46347l-5.24658-1.50885
				c-0.4801-0.13715-0.75446-0.61725-0.65155-1.09732c0.0343-0.13718,0.10284-0.27432,0.20575-0.3772l4.14929-3.73779
				C658.91785,442.11621,659.36365,443.21356,659.638,444.41376L659.638,444.41376z M656.6889,439.09854l-4.49219,3.18915
				c-0.37726,0.24002-0.8916,0.17145-1.20026-0.20575c-0.10284-0.10287-0.13715-0.24005-0.17145-0.37723l-0.30859-5.58954
				C652.88251,436.38953,655.04291,437.45255,656.6889,439.09854L656.6889,439.09854z M646.74432,436.28665
				c0.3772-0.0686,0.72009-0.13718,1.09735-0.20575l-0.30865,5.48666c-0.0343,0.48007-0.4115,0.89157-0.92584,0.89157
				c-0.13721,0-0.30865-0.0343-0.4115-0.10287l-4.56079-3.25772C643.04083,437.6926,644.78967,436.73242,646.74432,436.28665
				L646.74432,436.28665z M639.98883,441.15607l4.08075,3.63492c0.3772,0.30862,0.4115,0.89157,0.10284,1.26877
				c-0.10284,0.13718-0.24005,0.24005-0.4115,0.27435l-5.31519,1.54312
				C638.23999,445.54538,638.75433,443.17926,639.98883,441.15607L639.98883,441.15607z M639.06299,450.4491l5.45239-0.92587
				c0.44574-0.0343,0.8573,0.27432,0.96014,0.72012c0.0343,0.20575,0.0343,0.3772-0.0343,0.54868l0,0l-2.0918,5.04086
				C641.42914,454.59839,639.88599,452.71234,639.06299,450.4491L639.06299,450.4491z M651.57947,457.27313
				c-0.78876,0.17145-1.57745,0.27432-2.40045,0.27432c-1.2002,0-2.36609-0.20575-3.46344-0.54865l2.70905-4.90372
				c0.27429-0.30862,0.72009-0.4458,1.09729-0.24005c0.17151,0.10287,0.30865,0.24005,0.4115,0.37723l0,0l2.6405,4.76654
				C652.26526,457.10168,651.92236,457.17026,651.57947,457.27313L651.57947,457.27313z M658.2663,452.50659
				c-0.8573,1.37167-1.98889,2.46899-3.29199,3.32629l-2.16034-5.17804c-0.10291-0.4115,0.06854-0.8573,0.48004-1.06305
				c0.13721-0.06857,0.30865-0.10287,0.4801-0.10287l5.48663,0.92587C659.05499,451.16922,658.7121,451.85504,658.2663,452.50659
				L658.2663,452.50659z"/>
			<path class="st13" d="M693.53241,448.06757c0.39734-0.43109,0.80774-0.8801,1.23206-1.34723
				c0.42389-0.46716,0.83478-0.92963,1.23199-1.38782c0.39728-0.45819,0.77161-0.89362,1.1236-1.30695
				c0.35193-0.41296,0.65436-0.77216,0.90717-1.07791h4.80219c-0.95795,1.10034-1.89307,2.15067-2.8053,3.151
				c-0.91272,1.0007-1.91095,2.03287-2.99512,3.09668c0.54211,0.48871,1.10205,1.07275,1.68042,1.75128
				c0.57819,0.67889,1.13849,1.38022,1.6806,2.10446c0.54211,0.72412,1.03882,1.44797,1.49072,2.17172
				c0.45148,0.72424,0.83099,1.38489,1.13849,1.98203h-4.64386c-0.28882-0.47092-0.61798-0.99136-0.98767-1.56232
				c-0.36975-0.57043-0.7619-1.14099-1.17694-1.71146c-0.41504-0.57043-0.85205-1.11844-1.31207-1.64368
				c-0.4599-0.52509-0.91565-0.96896-1.36627-1.33145v6.2489h-4.03851v-20.38278l4.03851-0.65057V448.06757z"/>
			<path class="st13" d="M717.08643,456.71698c-0.68689,0.19904-1.57202,0.38406-2.65625,0.55563
				c-1.08417,0.17157-2.2226,0.25745-3.41522,0.25745c-1.21075,0-2.21826-0.1626-3.02216-0.48782
				c-0.80426-0.32526-1.44128-0.78134-1.91083-1.36884c-0.47009-0.58698-0.80426-1.28745-1.00293-2.10065
				c-0.19904-0.81308-0.29816-1.70752-0.29816-2.68335v-7.94174h4.03857v7.45389c0,1.30106,0.17157,2.24084,0.51508,2.81888
				c0.34296,0.57855,0.98462,0.86737,1.92444,0.86737c0.28882,0,0.59625-0.01361,0.92151-0.04068s0.61407-0.05844,0.86737-0.09485
				v-11.00461h4.03857V456.71698z"/>
			<path class="st13" d="M734.13513,450.07632c0,1.13831-0.16724,2.1683-0.50146,3.08994
				c-0.33453,0.92154-0.81781,1.70755-1.45001,2.35812c-0.63287,0.65048-1.40955,1.15192-2.33105,1.50424
				c-0.92157,0.35245-1.96979,0.52853-3.14423,0.52853c-0.48785,0-0.99866-0.0228-1.53131-0.06778
				c-0.53333-0.0452-1.05719-0.10416-1.57214-0.17609c-0.51508-0.07242-1.00757-0.15796-1.47729-0.2576
				c-0.47003-0.099-0.8855-0.20316-1.24677-0.31161v-19.92203l4.03857-0.65057v7.10144
				c0.45148-0.19855,0.92169-0.35233,1.40955-0.46078c0.48779-0.10831,1.01172-0.1626,1.57208-0.1626
				c1.01172,0,1.90619,0.17621,2.68335,0.52853c0.77667,0.35242,1.42719,0.85388,1.95154,1.50433
				c0.52386,0.65048,0.92151,1.43231,1.19257,2.34451C733.99963,447.93964,734.13513,448.95602,734.13513,450.07632z
				 M730.0152,449.96786c0-2.60211-0.95807-3.90317-2.87317-3.90317c-0.41577,0-0.82666,0.05429-1.23315,0.16263
				c-0.40662,0.10846-0.73651,0.24399-0.98944,0.40662v7.3454c0.19867,0.03641,0.45148,0.06778,0.75891,0.09485
				c0.30713,0.0271,0.6413,0.04071,1.00293,0.04071c1.10205,0,1.93335-0.37952,2.49365-1.13846
				C729.7348,452.21753,730.0152,451.21463,730.0152,449.96786z"/>
			<path class="st13" d="M735.53601,450.18466c0-1.26456,0.19397-2.37161,0.58282-3.32034
				c0.38837-0.94861,0.89862-1.73892,1.53143-2.37161c0.6322-0.63232,1.35938-1.11136,2.18188-1.43658
				c0.82202-0.32523,1.66699-0.48785,2.53436-0.48785c2.02344,0,3.62262,0.61911,4.79749,1.85669
				c1.17444,1.23795,1.76184,3.05856,1.76184,5.46155c0,0.23505-0.00934,0.49261-0.0271,0.77252
				c-0.01825,0.28036-0.03644,0.52853-0.0542,0.74542h-9.1615c0.09033,0.83136,0.47864,1.49075,1.16553,1.97861
				c0.68658,0.48785,1.60815,0.73184,2.76471,0.73184c0.74078,0,1.46796-0.06778,2.18188-0.20331
				c0.71368-0.13553,1.29639-0.30231,1.74835-0.50146l0.54199,3.27979c-0.21674,0.10834-0.50598,0.21677-0.86725,0.32523
				c-0.36176,0.10834-0.76367,0.20331-1.20618,0.28455c-0.44299,0.08139-0.91736,0.14914-1.42297,0.20331
				c-0.5061,0.05417-1.01221,0.08136-1.51794,0.08136c-1.2832,0-2.39868-0.18982-3.34747-0.56921
				c-0.94861-0.37952-1.73468-0.89874-2.35809-1.5585c-0.62341-0.65942-1.08417-1.44089-1.38232-2.34464
				C735.68518,452.20871,735.53601,451.23288,735.53601,450.18466z M745.02277,448.63974
				c-0.01825-0.34314-0.07709-0.67767-0.17621-1.0029c-0.09949-0.32526-0.2533-0.61407-0.46075-0.86737
				c-0.20795-0.25281-0.47009-0.46078-0.78601-0.62338c-0.31641-0.16263-0.70941-0.24399-1.17914-0.24399
				c-0.4519,0-0.84027,0.07709-1.16553,0.23038c-0.3252,0.15381-0.59625,0.35709-0.81305,0.60989
				c-0.21692,0.2533-0.38416,0.54681-0.50146,0.88086c-0.11774,0.33466-0.20331,0.67337-0.25757,1.01651H745.02277z"/>
			<path class="st13" d="M763.54193,446.5256c-0.36176-0.09033-1.20129-0.18518-1.68909-0.28467
				c-0.48798-0.09915-1.84277-0.14902-2.40265-0.14902c-0.2533,0-0.97089,0.0228-1.3233,0.06775
				c-0.35229,0.04523-1.03436,0.09488-1.21484,0.14902v10.89615h-4.03857V443.7066c0.72253-0.25281,1.57629-0.49216,2.5614-0.71823
				c0.98468-0.22574,2.9129-0.33884,4.12378-0.33884c0.2168,0,0.8938,0.01358,1.20123,0.04068
				c0.30713,0.02707,1.02936,0.06348,1.33679,0.10846c0.30719,0.0452,0.82172,0.09949,1.12927,0.1626
				c0.30713,0.06348,0.77673,0.1402,0.99365,0.23038L763.54193,446.5256z"/>
			<path class="st13" d="M767.21814,443.43564c0.68671-0.19864,1.57227-0.38379,2.65625-0.55573
				c1.08429-0.17145,2.22272-0.25748,3.41534-0.25748c1.21045,0,2.21802,0.15845,3.02216,0.47437
				c0.80389,0.31628,1.44086,0.76358,1.91095,1.34161c0.4696,0.57855,0.80389,1.26505,1.00293,2.05997
				c0.19849,0.79544,0.29803,1.68057,0.29803,2.65628v8.05017h-4.03857v-7.56219c0-1.30106-0.17206-2.2226-0.51495-2.76471
				c-0.34363-0.54214-0.98523-0.81323-1.92444-0.81323c-0.28943,0-0.59631,0.01361-0.92151,0.04071
				c-0.3255,0.02707-0.61469,0.05893-0.86737,0.09485v11.00458h-4.03882V443.43564z"/>
			<path class="st13" d="M782.29767,450.18466c0-1.26456,0.19385-2.37161,0.58258-3.32034
				c0.38843-0.94861,0.89874-1.73892,1.53156-2.37161c0.63232-0.63232,1.3595-1.11136,2.18176-1.43658
				s1.66711-0.48785,2.53448-0.48785c2.02344,0,3.62262,0.61911,4.79761,1.85669c1.17419,1.23795,1.76166,3.05856,1.76166,5.46155
				c0,0.23505-0.00928,0.49261-0.02716,0.77252c-0.01819,0.28036-0.03632,0.52853-0.0542,0.74542h-9.16138
				c0.09015,0.83136,0.47864,1.49075,1.16565,1.97861c0.68646,0.48785,1.60797,0.73184,2.76459,0.73184
				c0.74066,0,1.46783-0.06778,2.18201-0.20331c0.71344-0.13553,1.29626-0.30231,1.74823-0.50146l0.54211,3.27979
				c-0.21692,0.10834-0.5061,0.21677-0.86737,0.32523c-0.36176,0.10834-0.76367,0.20331-1.2063,0.28455
				c-0.44287,0.08139-0.91711,0.14914-1.42297,0.20331c-0.50616,0.05417-1.01227,0.08136-1.51788,0.08136
				c-1.28326,0-2.39868-0.18982-3.34741-0.56921c-0.94873-0.37952-1.73474-0.89874-2.35797-1.5585
				c-0.62354-0.65942-1.08429-1.44089-1.38257-2.34464C782.44666,452.20871,782.29767,451.23288,782.29767,450.18466z
				 M791.7843,448.63974c-0.01813-0.34314-0.07721-0.67767-0.17621-1.0029c-0.09949-0.32526-0.25317-0.61407-0.46075-0.86737
				c-0.20813-0.25281-0.47009-0.46078-0.78601-0.62338c-0.31641-0.16263-0.70953-0.24399-1.17914-0.24399
				c-0.4519,0-0.84015,0.07709-1.16541,0.23038c-0.32544,0.15381-0.59625,0.35709-0.81317,0.60989
				c-0.21692,0.2533-0.38434,0.54681-0.50146,0.88086c-0.11786,0.33466-0.20343,0.67337-0.25757,1.01651H791.7843z"/>
			<path class="st13" d="M800.95245,439.39694l4.03882-0.65045v4.20117h6.03259v3.36102h-6.03259v5.0144
				c0,0.84961,0.14905,1.52713,0.44708,2.03287c0.29822,0.50613,1.35468,0.75894,2.25861,0.75894
				c0.43353,0,1.29608-0.04071,1.75684-0.12195c0.46075-0.08136,0.88086-0.19397,1.2605-0.33884l0.56909,3.14413
				c-0.48798,0.19913-1.02985,0.37057-1.62616,0.51505c-0.59631,0.14435-1.74341,0.21677-2.61078,0.21677
				c-1.10242,0-2.47107-0.14899-3.1936-0.44714c-0.72302-0.29816-1.30115-0.71371-1.73474-1.24689
				c-0.43378-0.53271-0.73651-1.17902-0.90802-1.93793c-0.17181-0.75903-0.25763-1.59918-0.25763-2.52084v-5.06906h-3.06091
				v-3.36053h3.06091V439.39694z"/>
			<path class="st13" d="M813.22992,450.18466c0-1.26456,0.19385-2.37161,0.58258-3.32034
				c0.38843-0.94861,0.89874-1.73892,1.53156-2.37161c0.63232-0.63232,1.3595-1.11136,2.18176-1.43658
				s1.66711-0.48785,2.53448-0.48785c2.02344,0,3.62262,0.61911,4.79761,1.85669c1.17419,1.23795,1.76166,3.05856,1.76166,5.46155
				c0,0.23505-0.00928,0.49261-0.02722,0.77252c-0.01813,0.28036-0.03625,0.52853-0.05414,0.74542h-9.16144
				c0.09021,0.83136,0.4787,1.49075,1.16565,1.97861c0.68652,0.48785,1.60803,0.73184,2.76465,0.73184
				c0.7406,0,1.46783-0.06778,2.18201-0.20331c0.71344-0.13553,1.29626-0.30231,1.74823-0.50146l0.54211,3.27979
				c-0.21692,0.10834-0.5061,0.21677-0.86737,0.32523c-0.36176,0.10834-0.76367,0.20331-1.2063,0.28455
				c-0.44293,0.08139-0.91718,0.14914-1.42303,0.20331c-0.5061,0.05417-1.01221,0.08136-1.51782,0.08136
				c-1.28326,0-2.39868-0.18982-3.34741-0.56921c-0.94873-0.37952-1.73474-0.89874-2.35797-1.5585
				c-0.62354-0.65942-1.08429-1.44089-1.38257-2.34464C813.37891,452.20871,813.22992,451.23288,813.22992,450.18466z
				 M822.71655,448.63974c-0.01813-0.34314-0.07721-0.67767-0.17621-1.0029c-0.09955-0.32526-0.25317-0.61407-0.46082-0.86737
				c-0.20807-0.25281-0.47003-0.46078-0.78595-0.62338c-0.31641-0.16263-0.70953-0.24399-1.17914-0.24399
				c-0.45197,0-0.84015,0.07709-1.16541,0.23038c-0.3255,0.15381-0.59631,0.35709-0.81317,0.60989
				c-0.21692,0.2533-0.38434,0.54681-0.50146,0.88086c-0.11792,0.33466-0.20343,0.67337-0.25763,1.01651H822.71655z"/>
			<path class="st13" d="M834.86749,454.3046c0.74066,0,1.26465-0.07193,1.57196-0.2168
				c0.30713-0.14447,0.46075-0.42438,0.46075-0.84027c0-0.32523-0.19897-0.60992-0.59625-0.85376
				c-0.39758-0.24399-1.00293-0.51923-1.81586-0.82669c-0.63281-0.23468-1.20636-0.47867-1.72125-0.73184
				c-0.51495-0.25281-0.95343-0.55573-1.3147-0.90805c-0.36151-0.35233-0.6416-0.77252-0.84015-1.26038
				c-0.19904-0.48785-0.29828-1.07483-0.29828-1.76181c0-1.33707,0.49683-2.39413,1.49091-3.1712
				c0.99359-0.77679,2.35797-1.16553,4.09271-1.16553c0.86737,0,1.69849,0.07709,2.49377,0.23041
				c0.7948,0.15366,1.42712,0.32092,1.89722,0.50143l-0.70465,3.14413c-0.47003-0.16263-0.98035-0.3071-1.53156-0.43369
				c-0.55115-0.12622-1.17004-0.1897-1.85651-0.1897c-1.26514,0-1.89746,0.35229-1.89746,1.05707
				c0,0.1626,0.02716,0.30743,0.08136,0.43365c0.05414,0.12662,0.16272,0.24866,0.3252,0.36594
				c0.16278,0.11777,0.38385,0.24472,0.66418,0.3811c0.27991,0.13687,0.63702,0.28714,1.07056,0.45059
				c0.88525,0.32831,1.61713,0.65182,2.1955,0.97031c0.57819,0.31888,1.0343,0.66321,1.36884,1.03256
				c0.33405,0.36972,0.56909,0.78012,0.70465,1.23071c0.1355,0.45059,0.20343,0.9736,0.20343,1.56833
				c0,1.40643-0.52869,2.47025-1.58575,3.19153c-1.05707,0.72083-2.55237,1.0817-4.48584,1.0817
				c-1.26489,0-2.31732-0.10843-3.15771-0.32535c-0.84015-0.21677-1.42297-0.39716-1.74823-0.54202l0.67767-3.27975
				c0.68652,0.27106,1.39111,0.48367,2.11414,0.63696C833.44867,454.228,834.1626,454.3046,834.86749,454.3046z"/>
		</g>
		<g>
			<rect id="Orange_Light_BG_5_" x="989.65436" y="76.94349" class="st14" width="77.03757" height="77.03757"/>
			<g id="Product_Icon_5_">
				<path class="st6" d="M1028.1731,143.20609c-0.17749,0-0.35449-0.04614-0.51355-0.13742l-23.62482-13.64107
					c-0.31799-0.18356-0.51361-0.52261-0.51361-0.88974v-27.28214c0-0.36713,0.19562-0.70618,0.51361-0.88974l21.57062-12.51058
					c0.31799-0.18256,0.70911-0.18256,1.0271,0c0.31799,0.18356,0.51367,0.52261,0.51367,0.88974v11.86359
					c0,0.36713-0.19617,0.70618-0.51416,0.88975l-10.78485,6.27836v14.23089l12.32599,7.11996l10.75415-6.21516
					c0.3175-0.18256,0.70874-0.18357,1.02625-0.00101l10.30225,5.92728c0.31848,0.18356,0.51514,0.52261,0.51514,0.88974
					c0,0.36714-0.19568,0.70718-0.51367,0.89075l-21.57043,12.4494C1028.52771,143.15994,1028.35022,143.20609,1028.1731,143.20609z
					 M1005.57544,127.94502l22.59766,13.04823l19.51318-11.26273l-8.2439-4.74263l-10.75513,6.21617
					c-0.31799,0.18257-0.70972,0.18257-1.02771,0l-13.35315-7.71378c-0.31799-0.18357-0.51361-0.52261-0.51361-0.88975V107.183
					c0-0.36713,0.19611-0.70618,0.5141-0.88975l10.78491-6.27836v-9.49127l-19.51636,11.32492V127.94502z"/>
				<path class="st6" d="M1051.79346,127.20274c-0.17725,0-0.3551-0.04514-0.51428-0.13642l-10.31653-5.90622
					c-0.31995-0.18356-0.51733-0.52361-0.4635-0.89075v-12.49352l-10.78296-6.16401
					c-0.31897-0.18357-0.51587-0.52261-0.51587-0.88975V88.85848c0-0.36713,0.19641-0.70618,0.51587-0.88974
					c0.31934-0.18256,0.71228-0.18256,1.03162,0l21.56152,12.39723c0.31934,0.18356,0.51587,0.52261,0.51587,0.88974v24.91985
					c0,0.36713-0.19653,0.70517-0.51489,0.88874C1052.15015,127.15659,1051.9718,127.20274,1051.79346,127.20274z
					 M1042.55347,119.68835l8.21741,4.6989v-22.53871l-19.51624-11.21057v9.4772l10.78406,6.19035
					c0.31836,0.18281,0.51477,0.52197,0.51477,0.88918V119.68835z"/>
				<g>
					<path class="st6" d="M1023.03729,122.64217v-15.40751h2.05438v7.01984l6.6925-7.01984h2.7113l-6.95947,7.49431l7.57043,7.9132
						h-2.82471l-7.19006-7.21304v7.21304H1023.03729z"/>
				</g>
			</g>
		</g>
		<g>
			<g>
				<path class="st6" d="M719.49396,171.24594c0,6.39365-5.2312,11.62482-11.62482,11.62482h-79.20642
					c-6.39368,0-11.62488-5.23117-11.62488-11.62482V70.60867c0-6.39365,5.2312-11.62483,11.62488-11.62483h79.20642
					c6.39362,0,11.62482,5.23117,11.62482,11.62483V171.24594z"/>
				<path class="st15" d="M719.49396,171.24594c0,6.39365-5.2312,11.62482-11.62482,11.62482h-79.20642
					c-6.39368,0-11.62488-5.23117-11.62488-11.62482V70.60867c0-6.39365,5.2312-11.62483,11.62488-11.62483h79.20642
					c6.39362,0,11.62482,5.23117,11.62482,11.62483V171.24594z"/>
			</g>
			<path class="st1" d="M719.49298,79.7188H617.03693V69.50849c0-5.81261,4.71204-10.52465,10.52466-10.52465h81.40674
				c5.81262,0,10.52466,4.71205,10.52466,10.52465V79.7188z"/>
			<g>
				<g>
					<path class="st6" d="M637.52539,70.83691c0.76465,0.81445,1.96094,1.52832,3.50684,1.52832
						c1.59473,0,2.22656-0.78027,2.22656-1.51172c0-0.99707-1.17969-1.2959-2.52637-1.64551
						c-1.81055-0.44824-3.9375-0.98047-3.9375-3.32324c0-1.82812,1.61133-3.24023,4.03809-3.24023
						c1.72754,0,3.12402,0.54883,4.15332,1.5459l-1.11328,1.44531c-0.86328-0.86426-2.04297-1.2627-3.20703-1.2627
						c-1.14648,0-1.87695,0.54785-1.87695,1.37891c0,0.86426,1.12988,1.14648,2.44238,1.47852
						c1.82812,0.46582,4.00488,1.03027,4.00488,3.44043c0,1.84375-1.29688,3.42285-4.28711,3.42285
						c-2.04395,0-3.52344-0.71484-4.50391-1.76172L637.52539,70.83691z"/>
					<path class="st6" d="M650.55273,65.66895c2.41016,0,3.95508,1.84473,3.95508,4.37012v0.41602h-6.19824
						c0.13281,1.21289,1.04688,2.20996,2.55957,2.20996c0.78027,0,1.71094-0.31641,2.27637-0.88086l0.79785,1.14648
						c-0.79785,0.76465-1.97754,1.16309-3.25684,1.16309c-2.41016,0-4.2041-1.67871-4.2041-4.2207
						C646.48242,67.54688,648.17676,65.66895,650.55273,65.66895z M648.29297,69.22461h4.52051
						c-0.0332-0.94727-0.68164-2.12695-2.26074-2.12695C649.05762,67.09766,648.37598,68.24414,648.29297,69.22461z"/>
					<path class="st6" d="M656.23633,65.86816h1.74512v1.17969c0.59766-0.76367,1.56152-1.3623,2.6084-1.3623v1.72852
						c-0.14941-0.0332-0.33203-0.0498-0.54785-0.0498c-0.73145,0-1.71191,0.49805-2.06055,1.06348v5.4668h-1.74512V65.86816z"/>
					<path class="st6" d="M660.83887,65.86816h1.86133l2.34277,6.01562l2.34277-6.01562h1.87793l-3.27344,8.02637h-1.87793
						L660.83887,65.86816z"/>
					<path class="st6" d="M670.14453,63.45898c0-0.59863,0.49805-1.08008,1.08008-1.08008
						c0.59766,0,1.08008,0.48145,1.08008,1.08008c0,0.59766-0.48242,1.08008-1.08008,1.08008
						C670.64258,64.53906,670.14453,64.05664,670.14453,63.45898z M670.36035,65.86816h1.74512v8.02637h-1.74512V65.86816z"/>
					<path class="st6" d="M678.01953,65.66895c1.5625,0,2.50977,0.66504,3.07422,1.42871l-1.14648,1.06348
						c-0.44824-0.63086-1.06348-0.94727-1.84375-0.94727c-1.46289,0-2.42676,1.09668-2.42676,2.65918
						c0,1.56152,0.96387,2.6748,2.42676,2.6748c0.78027,0,1.39551-0.33203,1.84375-0.94629l1.14648,1.06348
						c-0.56445,0.76367-1.51172,1.42871-3.07422,1.42871c-2.44238,0-4.15332-1.77832-4.15332-4.2207
						C673.86621,67.44727,675.57715,65.66895,678.01953,65.66895z"/>
					<path class="st6" d="M686.19531,65.66895c2.41016,0,3.95508,1.84473,3.95508,4.37012v0.41602h-6.19824
						c0.13281,1.21289,1.04688,2.20996,2.55957,2.20996c0.78027,0,1.71094-0.31641,2.27637-0.88086l0.79785,1.14648
						c-0.79785,0.76465-1.97754,1.16309-3.25684,1.16309c-2.41016,0-4.2041-1.67871-4.2041-4.2207
						C682.125,67.54688,683.81934,65.66895,686.19531,65.66895z M683.93555,69.22461h4.52051
						c-0.0332-0.94727-0.68164-2.12695-2.26074-2.12695C684.7002,67.09766,684.01855,68.24414,683.93555,69.22461z"/>
					<path class="st6" d="M698.20898,65.33691l-1.81152,1.87695l-1.12988-1.17969l3.19043-3.22363h1.69531v11.08398h-1.94434
						V65.33691z"/>
				</g>
			</g>
			<g>
				<path class="st16" d="M647.04541,91.69106v-4.10542c0-0.01471,0.01202-0.02675,0.02673-0.02675h62.54364
					c0.01471,0,0.02673,0.01204,0.02673,0.02675v68.36431c0,0.01471-0.01202,0.02676-0.02673,0.02678l-4.09485,0.00409"/>
			</g>
			<g>
				<path class="st17" d="M636.38251,101.2075v-4.10287c0-0.01471,0.01202-0.02675,0.02673-0.02675h62.54364
					c0.01471,0,0.02673,0.01204,0.02673,0.02675v68.36431c0,0.01471-0.01202,0.02675-0.02673,0.02675h-4.10284"/>
			</g>
			<g>
				<g>
					<g>
						<path class="st18" d="M646.02539,112.99707h4.86914c2.32617,0,3.62207,1.5957,3.62207,3.47363
							c0,1.87695-1.3125,3.47266-3.62207,3.47266h-2.9248v4.1377h-1.94434V112.99707z M650.62793,114.70898h-2.6582v3.52246h2.6582
							c1.09668,0,1.89453-0.69727,1.89453-1.76074S651.72461,114.70898,650.62793,114.70898z"/>
						<path class="st18" d="M655.33105,120.05957c0-2.29297,1.57812-4.2041,4.12012-4.2041c2.57617,0,4.1377,1.91113,4.1377,4.2041
							c0,2.30957-1.56152,4.2207-4.1377,4.2207C656.90918,124.28027,655.33105,122.36914,655.33105,120.05957z M661.77832,120.05957
							c0-1.41211-0.83105-2.65918-2.32715-2.65918c-1.47852,0-2.30957,1.24707-2.30957,2.65918
							c0,1.42871,0.83105,2.6748,2.30957,2.6748C660.94727,122.73438,661.77832,121.48828,661.77832,120.05957z"/>
						<path class="st18" d="M671,122.98438c-0.61426,0.79688-1.54492,1.2959-2.5752,1.2959
							c-2.06055,0-3.57227-1.5625-3.57227-4.2041c0-2.5918,1.49512-4.2207,3.57227-4.2207c0.99707,0,1.92773,0.46484,2.5752,1.3125
							v-4.1709h1.74512v11.08398H671V122.98438z M671,118.48047c-0.39844-0.59766-1.24609-1.08008-2.07715-1.08008
							c-1.37891,0-2.25977,1.11426-2.25977,2.67578c0,1.54492,0.88086,2.6582,2.25977,2.6582
							c0.83105,0,1.67871-0.46484,2.07715-1.06348V118.48047z"/>
					</g>
				</g>
				<g>
					<path class="st19" d="M690.59662,174.99585c0,0.01471-0.01202,0.02675-0.02673,0.02675h-62.54364
						c-0.01471,0-0.02673-0.01204-0.02673-0.02675v-68.36431c0-0.01471,0.01202-0.02674,0.02673-0.02674h62.54364
						c0.01471,0,0.02673,0.01203,0.02673,0.02674V174.99585z"/>
				</g>
				<line class="st20" x1="627.99951" y1="130.04288" x2="690.59662" y2="130.04288"/>
				<g>
					<circle class="st1" cx="658.98999" cy="152.0609" r="17.55274"/>
					<g>
						<g>
							<path class="st6" d="M653.15723,155.22852h-4.33301l-0.61133,1.67285h-2.26758l3.75098-9.69922h2.58887l3.7373,9.69922
								h-2.25391L653.15723,155.22852z M649.37695,153.44043h3.21387l-1.59961-4.4502L649.37695,153.44043z"/>
							<path class="st6" d="M656.69531,159.57715v-9.69922h1.84668v0.88672c0.53809-0.68359,1.30859-1.06152,2.16699-1.06152
								c1.80273,0,3.1123,1.33789,3.1123,3.67871c0,2.3418-1.30957,3.69336-3.1123,3.69336
								c-0.8291,0-1.59961-0.34863-2.16699-1.0752v3.57715H656.69531z M660.12695,151.34668
								c-0.5957,0-1.2793,0.34863-1.58496,0.7998v2.48633c0.30566,0.43652,0.98926,0.7998,1.58496,0.7998
								c1.06152,0,1.77441-0.8291,1.77441-2.05078C661.90137,152.1748,661.18848,151.34668,660.12695,151.34668z"/>
							<path class="st6" d="M664.98242,159.57715v-9.69922h1.84668v0.88672c0.53809-0.68359,1.30859-1.06152,2.16699-1.06152
								c1.80273,0,3.1123,1.33789,3.1123,3.67871c0,2.3418-1.30957,3.69336-3.1123,3.69336
								c-0.8291,0-1.59961-0.34863-2.16699-1.0752v3.57715H664.98242z M668.41406,151.34668
								c-0.5957,0-1.2793,0.34863-1.58496,0.7998v2.48633c0.30566,0.43652,0.98926,0.7998,1.58496,0.7998
								c1.06152,0,1.77441-0.8291,1.77441-2.05078C670.18848,152.1748,669.47559,151.34668,668.41406,151.34668z"/>
						</g>
					</g>
				</g>
			</g>
		</g>
		<g>
			<g>
				<path class="st6" d="M844.39417,171.24594c0,6.39365-5.23114,11.62482-11.62482,11.62482h-79.20642
					c-6.39368,0-11.62482-5.23117-11.62482-11.62482V70.60867c0-6.39365,5.23114-11.62483,11.62482-11.62483h79.20642
					c6.39368,0,11.62482,5.23117,11.62482,11.62483V171.24594z"/>
				<path class="st15" d="M844.39417,171.24594c0,6.39365-5.23114,11.62482-11.62482,11.62482h-79.20642
					c-6.39368,0-11.62482-5.23117-11.62482-11.62482V70.60867c0-6.39365,5.23114-11.62483,11.62482-11.62483h79.20642
					c6.39368,0,11.62482,5.23117,11.62482,11.62483V171.24594z"/>
			</g>
			<path class="st1" d="M844.39325,79.7188H741.93713V69.50849c0-5.81261,4.7121-10.52465,10.52466-10.52465h81.4068
				c5.81262,0,10.52466,4.71205,10.52466,10.52465V79.7188z"/>
			<g>
				<g>
					<path class="st6" d="M760.63965,70.83691c0.76465,0.81445,1.96094,1.52832,3.50684,1.52832
						c1.59473,0,2.22656-0.78027,2.22656-1.51172c0-0.99707-1.17969-1.2959-2.52637-1.64551
						c-1.81055-0.44824-3.9375-0.98047-3.9375-3.32324c0-1.82812,1.61133-3.24023,4.03809-3.24023
						c1.72754,0,3.12305,0.54883,4.15332,1.5459l-1.11328,1.44531c-0.86328-0.86426-2.04395-1.2627-3.20703-1.2627
						c-1.14648,0-1.87695,0.54785-1.87695,1.37891c0,0.86426,1.12988,1.14648,2.44238,1.47852
						c1.82812,0.46582,4.00488,1.03027,4.00488,3.44043c0,1.84375-1.29688,3.42285-4.28711,3.42285
						c-2.04395,0-3.52344-0.71484-4.50391-1.76172L760.63965,70.83691z"/>
					<path class="st6" d="M773.66699,65.66895c2.41016,0,3.95508,1.84473,3.95508,4.37012v0.41602h-6.19824
						c0.13281,1.21289,1.04688,2.20996,2.55957,2.20996c0.78027,0,1.71094-0.31641,2.27637-0.88086l0.79785,1.14648
						c-0.79785,0.76465-1.97754,1.16309-3.25684,1.16309c-2.41016,0-4.2041-1.67871-4.2041-4.2207
						C769.59668,67.54688,771.29102,65.66895,773.66699,65.66895z M771.40723,69.22461h4.52051
						c-0.0332-0.94727-0.68164-2.12695-2.26074-2.12695C772.17188,67.09766,771.49023,68.24414,771.40723,69.22461z"/>
					<path class="st6" d="M779.35059,65.86816h1.74512v1.17969c0.59766-0.76367,1.56152-1.3623,2.6084-1.3623v1.72852
						c-0.14941-0.0332-0.33203-0.0498-0.54785-0.0498c-0.73145,0-1.71191,0.49805-2.06055,1.06348v5.4668h-1.74512V65.86816z"/>
					<path class="st6" d="M783.95312,65.86816h1.86133l2.34277,6.01562L790.5,65.86816h1.87793l-3.27344,8.02637h-1.87793
						L783.95312,65.86816z"/>
					<path class="st6" d="M793.25879,63.45898c0-0.59863,0.49805-1.08008,1.08008-1.08008
						c0.59766,0,1.08008,0.48145,1.08008,1.08008c0,0.59766-0.48242,1.08008-1.08008,1.08008
						C793.75684,64.53906,793.25879,64.05664,793.25879,63.45898z M793.47461,65.86816h1.74512v8.02637h-1.74512V65.86816z"/>
					<path class="st6" d="M801.13477,65.66895c1.56152,0,2.50879,0.66504,3.07324,1.42871l-1.14648,1.06348
						c-0.44824-0.63086-1.06348-0.94727-1.84375-0.94727c-1.46289,0-2.42676,1.09668-2.42676,2.65918
						c0,1.56152,0.96387,2.6748,2.42676,2.6748c0.78027,0,1.39551-0.33203,1.84375-0.94629l1.14648,1.06348
						c-0.56445,0.76367-1.51172,1.42871-3.07324,1.42871c-2.44336,0-4.1543-1.77832-4.1543-4.2207
						C796.98047,67.44727,798.69141,65.66895,801.13477,65.66895z"/>
					<path class="st6" d="M809.30957,65.66895c2.41016,0,3.95508,1.84473,3.95508,4.37012v0.41602h-6.19824
						c0.13281,1.21289,1.04688,2.20996,2.55957,2.20996c0.78027,0,1.71094-0.31641,2.27637-0.88086l0.79785,1.14648
						c-0.79785,0.76465-1.97754,1.16309-3.25684,1.16309c-2.41016,0-4.2041-1.67871-4.2041-4.2207
						C805.23926,67.54688,806.93359,65.66895,809.30957,65.66895z M807.0498,69.22461h4.52051
						c-0.0332-0.94727-0.68164-2.12695-2.26074-2.12695C807.81445,67.09766,807.13281,68.24414,807.0498,69.22461z"/>
					<path class="st6" d="M818.96387,72.36523c4.30371-3.25684,5.98145-4.70215,5.98145-6.29785
						c0-1.16309-0.99707-1.69434-2.00977-1.69434c-1.29688,0-2.29395,0.53125-2.99121,1.3291l-1.12988-1.2793
						c0.98047-1.17969,2.54199-1.77832,4.08691-1.77832c2.14355,0,4.02148,1.21289,4.02148,3.42285
						c0,2.04395-1.87793,3.87207-4.85156,6.11523h4.91797v1.71191h-8.02539V72.36523z"/>
				</g>
			</g>
			<g>
				<path class="st16" d="M771.94562,91.69106v-4.10542c0-0.01471,0.01202-0.02675,0.02673-0.02675h62.54364
					c0.01471,0,0.02673,0.01204,0.02673,0.02675v68.36431c0,0.01471-0.01202,0.02676-0.02673,0.02678l-4.09485,0.00409"/>
			</g>
			<g>
				<path class="st17" d="M761.28271,101.2075v-4.10287c0-0.01471,0.01208-0.02675,0.02679-0.02675h62.54358
					c0.01471,0,0.02679,0.01204,0.02679,0.02675v68.36431c0,0.01471-0.01208,0.02675-0.02679,0.02675h-4.10284"/>
			</g>
			<g>
				<g>
					<g>
						<path class="st18" d="M770.92578,112.99707h4.86914c2.32617,0,3.62207,1.5957,3.62207,3.47363
							c0,1.87695-1.3125,3.47266-3.62207,3.47266h-2.9248v4.1377h-1.94434V112.99707z M775.52832,114.70898h-2.6582v3.52246h2.6582
							c1.09668,0,1.89453-0.69727,1.89453-1.76074S776.625,114.70898,775.52832,114.70898z"/>
						<path class="st18" d="M780.23145,120.05957c0-2.29297,1.57812-4.2041,4.12012-4.2041c2.57617,0,4.1377,1.91113,4.1377,4.2041
							c0,2.30957-1.56152,4.2207-4.1377,4.2207C781.80957,124.28027,780.23145,122.36914,780.23145,120.05957z M786.67871,120.05957
							c0-1.41211-0.83105-2.65918-2.32715-2.65918c-1.47852,0-2.30957,1.24707-2.30957,2.65918
							c0,1.42871,0.83105,2.6748,2.30957,2.6748C785.84766,122.73438,786.67871,121.48828,786.67871,120.05957z"/>
						<path class="st18" d="M795.90039,122.98438c-0.61426,0.79688-1.54492,1.2959-2.5752,1.2959
							c-2.06055,0-3.57227-1.5625-3.57227-4.2041c0-2.5918,1.49512-4.2207,3.57227-4.2207c0.99707,0,1.92773,0.46484,2.5752,1.3125
							v-4.1709h1.74512v11.08398h-1.74512V122.98438z M795.90039,118.48047c-0.39844-0.59766-1.24609-1.08008-2.07715-1.08008
							c-1.37891,0-2.25977,1.11426-2.25977,2.67578c0,1.54492,0.88086,2.6582,2.25977,2.6582
							c0.83105,0,1.67871-0.46484,2.07715-1.06348V118.48047z"/>
					</g>
				</g>
				<g>
					<path class="st19" d="M815.49683,174.99585c0,0.01471-0.01202,0.02675-0.02673,0.02675h-62.54364
						c-0.01471,0-0.02673-0.01204-0.02673-0.02675v-68.36431c0-0.01471,0.01202-0.02674,0.02673-0.02674h62.54364
						c0.01471,0,0.02673,0.01203,0.02673,0.02674V174.99585z"/>
				</g>
				<line class="st20" x1="752.89972" y1="130.04288" x2="815.49683" y2="130.04288"/>
				<g>
					<circle class="st1" cx="783.89026" cy="152.0609" r="17.55274"/>
					<g>
						<g>
							<path class="st6" d="M778.05762,155.22852h-4.33301l-0.61133,1.67285h-2.26758l3.75098-9.69922h2.58887l3.7373,9.69922
								h-2.25391L778.05762,155.22852z M774.27734,153.44043h3.21387l-1.59961-4.4502L774.27734,153.44043z"/>
							<path class="st6" d="M781.5957,159.57715v-9.69922h1.84668v0.88672c0.53809-0.68359,1.30859-1.06152,2.16699-1.06152
								c1.80273,0,3.1123,1.33789,3.1123,3.67871c0,2.3418-1.30957,3.69336-3.1123,3.69336
								c-0.8291,0-1.59961-0.34863-2.16699-1.0752v3.57715H781.5957z M785.02734,151.34668c-0.5957,0-1.2793,0.34863-1.58496,0.7998
								v2.48633c0.30566,0.43652,0.98926,0.7998,1.58496,0.7998c1.06152,0,1.77441-0.8291,1.77441-2.05078
								C786.80176,152.1748,786.08887,151.34668,785.02734,151.34668z"/>
							<path class="st6" d="M789.88281,159.57715v-9.69922h1.84668v0.88672c0.53809-0.68359,1.30859-1.06152,2.16699-1.06152
								c1.80273,0,3.1123,1.33789,3.1123,3.67871c0,2.3418-1.30957,3.69336-3.1123,3.69336
								c-0.8291,0-1.59961-0.34863-2.16699-1.0752v3.57715H789.88281z M793.31445,151.34668
								c-0.5957,0-1.2793,0.34863-1.58496,0.7998v2.48633c0.30566,0.43652,0.98926,0.7998,1.58496,0.7998
								c1.06152,0,1.77441-0.8291,1.77441-2.05078C795.08887,152.1748,794.37598,151.34668,793.31445,151.34668z"/>
						</g>
					</g>
				</g>
			</g>
		</g>
		<g>
			<g>
				<path class="st6" d="M719.49396,391.42911c0,6.39365-5.2312,11.62485-11.62482,11.62485h-79.20642
					c-6.39368,0-11.62488-5.2312-11.62488-11.62485V290.79184c0-6.39365,5.2312-11.62482,11.62488-11.62482h79.20642
					c6.39362,0,11.62482,5.23117,11.62482,11.62482V391.42911z"/>
				<path class="st15" d="M719.49396,391.42911c0,6.39365-5.2312,11.62485-11.62482,11.62485h-79.20642
					c-6.39368,0-11.62488-5.2312-11.62488-11.62485V290.79184c0-6.39365,5.2312-11.62482,11.62488-11.62482h79.20642
					c6.39362,0,11.62482,5.23117,11.62482,11.62482V391.42911z"/>
			</g>
			<path class="st1" d="M719.49298,299.90198H617.03693v-10.21033c0-5.81259,4.71204-10.52463,10.52466-10.52463h81.40674
				c5.81262,0,10.52466,4.71204,10.52466,10.52463V299.90198z"/>
			<g>
				<g>
					<path class="st6" d="M635.91406,291.01953c0.76465,0.81445,1.96094,1.5293,3.50684,1.5293
						c1.59473,0,2.22656-0.78125,2.22656-1.51172c0-0.99805-1.17969-1.29688-2.52637-1.64551
						c-1.81055-0.44824-3.9375-0.98047-3.9375-3.32324c0-1.82812,1.61133-3.24023,4.03809-3.24023
						c1.72754,0,3.12402,0.54883,4.15332,1.54492l-1.11328,1.44531c-0.86328-0.86328-2.04297-1.26172-3.20703-1.26172
						c-1.14648,0-1.87695,0.54785-1.87695,1.37891c0,0.86328,1.12988,1.14648,2.44238,1.47852
						c1.82812,0.46484,4.00488,1.03027,4.00488,3.43945c0,1.84473-1.29688,3.42383-4.28711,3.42383
						c-2.04395,0-3.52344-0.71484-4.50391-1.76172L635.91406,291.01953z"/>
					<path class="st6" d="M648.94141,285.85254c2.41016,0,3.95508,1.84473,3.95508,4.37012v0.41602h-6.19824
						c0.13281,1.21289,1.04688,2.20898,2.55957,2.20898c0.78027,0,1.71094-0.31543,2.27637-0.88086l0.79785,1.14648
						c-0.79785,0.76562-1.97754,1.16406-3.25684,1.16406c-2.41016,0-4.2041-1.67871-4.2041-4.2207
						C644.87109,287.73047,646.56543,285.85254,648.94141,285.85254z M646.68164,289.4082h4.52051
						c-0.0332-0.94727-0.68164-2.12695-2.26074-2.12695C647.44629,287.28125,646.76465,288.42773,646.68164,289.4082z"/>
					<path class="st6" d="M654.625,286.05176h1.74512v1.17969c0.59766-0.76465,1.56152-1.3623,2.6084-1.3623v1.72852
						c-0.14941-0.0332-0.33203-0.05078-0.54785-0.05078c-0.73145,0-1.71191,0.49902-2.06055,1.06445v5.4668H654.625V286.05176z"/>
					<path class="st6" d="M659.22754,286.05176h1.86133l2.34277,6.01465l2.34277-6.01465h1.87793l-3.27344,8.02637h-1.87793
						L659.22754,286.05176z"/>
					<path class="st6" d="M668.5332,283.64258c0-0.59863,0.49805-1.08008,1.08008-1.08008
						c0.59766,0,1.08008,0.48145,1.08008,1.08008c0,0.59766-0.48242,1.08008-1.08008,1.08008
						C669.03125,284.72266,668.5332,284.24023,668.5332,283.64258z M668.74902,286.05176h1.74512v8.02637h-1.74512V286.05176z"/>
					<path class="st6" d="M676.4082,285.85254c1.5625,0,2.50977,0.66504,3.07422,1.42871l-1.14648,1.06348
						c-0.44824-0.63184-1.06348-0.94727-1.84375-0.94727c-1.46289,0-2.42676,1.09668-2.42676,2.65918
						c0,1.56152,0.96387,2.6748,2.42676,2.6748c0.78027,0,1.39551-0.33203,1.84375-0.94629l1.14648,1.0625
						c-0.56445,0.76465-1.51172,1.42969-3.07422,1.42969c-2.44238,0-4.15332-1.77832-4.15332-4.2207
						C672.25488,287.63086,673.96582,285.85254,676.4082,285.85254z"/>
					<path class="st6" d="M684.58398,285.85254c2.41016,0,3.95508,1.84473,3.95508,4.37012v0.41602h-6.19824
						c0.13281,1.21289,1.04688,2.20898,2.55957,2.20898c0.78027,0,1.71094-0.31543,2.27637-0.88086l0.79785,1.14648
						c-0.79785,0.76562-1.97754,1.16406-3.25684,1.16406c-2.41016,0-4.2041-1.67871-4.2041-4.2207
						C680.51367,287.73047,682.20801,285.85254,684.58398,285.85254z M682.32422,289.4082h4.52051
						c-0.0332-0.94727-0.68164-2.12695-2.26074-2.12695C683.08887,287.28125,682.40723,288.42773,682.32422,289.4082z"/>
					<path class="st6" d="M694.85254,291.20312c0.71484,0.83008,1.89453,1.3457,3.07422,1.3457
						c1.46289,0,2.30957-0.66406,2.30957-1.69531c0-1.0957-0.87988-1.56152-2.45898-1.56152c-0.46484,0-1.11328,0-1.2793,0.0166
						v-1.74414c0.19922,0.01562,0.84766,0.01562,1.2793,0.01562c1.2959,0,2.27637-0.44824,2.27637-1.46191
						c0-1.03027-0.99707-1.56152-2.24316-1.56152c-1.12988,0-2.06055,0.43164-2.8584,1.22852l-0.99609-1.21289
						c0.84668-0.99609,2.19336-1.74414,4.03711-1.74414c2.39355,0,4.00488,1.12988,4.00488,2.99023
						c0,1.47949-1.2627,2.34375-2.40918,2.54297c1.08008,0.09961,2.5752,0.98047,2.5752,2.69141
						c0,1.87891-1.61133,3.22461-4.1709,3.22461c-1.97754,0-3.43945-0.79785-4.1875-1.79492L694.85254,291.20312z"/>
				</g>
			</g>
			<g>
				<path class="st16" d="M647.04541,311.87424v-4.10541c0-0.01471,0.01202-0.02676,0.02673-0.02676h62.54364
					c0.01471,0,0.02673,0.01205,0.02673,0.02676v68.36429c0,0.01471-0.01202,0.02676-0.02673,0.02679l-4.09485,0.00409"/>
			</g>
			<g>
				<path class="st17" d="M636.38251,321.39069v-4.10287c0-0.01471,0.01202-0.02673,0.02673-0.02673h62.54364
					c0.01471,0,0.02673,0.01202,0.02673,0.02673v68.36432c0,0.01471-0.01202,0.02673-0.02673,0.02673h-4.10284"/>
			</g>
			<g>
				<g>
					<g>
						<path class="st18" d="M646.02539,333.18066h4.86914c2.32617,0,3.62207,1.59473,3.62207,3.47363
							c0,1.87695-1.3125,3.47266-3.62207,3.47266h-2.9248v4.13672h-1.94434V333.18066z M650.62793,334.89258h-2.6582v3.52246h2.6582
							c1.09668,0,1.89453-0.69824,1.89453-1.76074C652.52246,335.58984,651.72461,334.89258,650.62793,334.89258z"/>
						<path class="st18" d="M655.33105,340.24219c0-2.29297,1.57812-4.20312,4.12012-4.20312
							c2.57617,0,4.1377,1.91016,4.1377,4.20312c0,2.31055-1.56152,4.2207-4.1377,4.2207
							C656.90918,344.46289,655.33105,342.55273,655.33105,340.24219z M661.77832,340.24219
							c0-1.41211-0.83105-2.6582-2.32715-2.6582c-1.47852,0-2.30957,1.24609-2.30957,2.6582
							c0,1.42969,0.83105,2.67578,2.30957,2.67578C660.94727,342.91797,661.77832,341.67188,661.77832,340.24219z"/>
						<path class="st18" d="M671,343.16797c-0.61426,0.79688-1.54492,1.29492-2.5752,1.29492
							c-2.06055,0-3.57227-1.56152-3.57227-4.20312c0-2.5918,1.49512-4.2207,3.57227-4.2207
							c0.99707,0,1.92773,0.46484,2.5752,1.3125v-4.1709h1.74512v11.08301H671V343.16797z M671,338.66406
							c-0.39844-0.59766-1.24609-1.08008-2.07715-1.08008c-1.37891,0-2.25977,1.11328-2.25977,2.67578
							c0,1.54492,0.88086,2.6582,2.25977,2.6582c0.83105,0,1.67871-0.46484,2.07715-1.06348V338.66406z"/>
					</g>
				</g>
				<g>
					<path class="st19" d="M690.59662,395.17902c0,0.01471-0.01202,0.02676-0.02673,0.02676h-62.54364
						c-0.01471,0-0.02673-0.01205-0.02673-0.02676v-68.36429c0-0.01471,0.01202-0.02676,0.02673-0.02676h62.54364
						c0.01471,0,0.02673,0.01205,0.02673,0.02676V395.17902z"/>
				</g>
				<line class="st20" x1="627.99951" y1="350.22604" x2="690.59662" y2="350.22604"/>
				<g>
					<circle class="st1" cx="658.98999" cy="372.24408" r="17.55274"/>
					<g>
						<g>
							<path class="st6" d="M653.15723,375.41211h-4.33301l-0.61133,1.67188h-2.26758l3.75098-9.69922h2.58887l3.7373,9.69922
								h-2.25391L653.15723,375.41211z M649.37695,373.62305h3.21387l-1.59961-4.44922L649.37695,373.62305z"/>
							<path class="st6" d="M656.69531,379.75977v-9.69922h1.84668v0.88672c0.53809-0.68262,1.30859-1.06055,2.16699-1.06055
								c1.80273,0,3.1123,1.33789,3.1123,3.67871s-1.30957,3.69336-3.1123,3.69336c-0.8291,0-1.59961-0.34863-2.16699-1.0752
								v3.57617H656.69531z M660.12695,371.5293c-0.5957,0-1.2793,0.34961-1.58496,0.80078v2.48633
								c0.30566,0.43555,0.98926,0.79883,1.58496,0.79883c1.06152,0,1.77441-0.82812,1.77441-2.0498
								C661.90137,372.3584,661.18848,371.5293,660.12695,371.5293z"/>
							<path class="st6" d="M664.98242,379.75977v-9.69922h1.84668v0.88672c0.53809-0.68262,1.30859-1.06055,2.16699-1.06055
								c1.80273,0,3.1123,1.33789,3.1123,3.67871s-1.30957,3.69336-3.1123,3.69336c-0.8291,0-1.59961-0.34863-2.16699-1.0752
								v3.57617H664.98242z M668.41406,371.5293c-0.5957,0-1.2793,0.34961-1.58496,0.80078v2.48633
								c0.30566,0.43555,0.98926,0.79883,1.58496,0.79883c1.06152,0,1.77441-0.82812,1.77441-2.0498
								C670.18848,372.3584,669.47559,371.5293,668.41406,371.5293z"/>
						</g>
					</g>
				</g>
			</g>
		</g>
		<g>
			<g>
				<path class="st6" d="M844.39417,391.42911c0,6.39365-5.23114,11.62485-11.62482,11.62485h-79.20642
					c-6.39368,0-11.62482-5.2312-11.62482-11.62485V290.79184c0-6.39365,5.23114-11.62482,11.62482-11.62482h79.20642
					c6.39368,0,11.62482,5.23117,11.62482,11.62482V391.42911z"/>
				<path class="st15" d="M844.39417,391.42911c0,6.39365-5.23114,11.62485-11.62482,11.62485h-79.20642
					c-6.39368,0-11.62482-5.2312-11.62482-11.62485V290.79184c0-6.39365,5.23114-11.62482,11.62482-11.62482h79.20642
					c6.39368,0,11.62482,5.23117,11.62482,11.62482V391.42911z"/>
			</g>
			<path class="st1" d="M844.39325,299.90198H741.93713v-10.21033c0-5.81259,4.7121-10.52463,10.52466-10.52463h81.4068
				c5.81262,0,10.52466,4.71204,10.52466,10.52463V299.90198z"/>
			<g>
				<g>
					<path class="st6" d="M760.76465,291.01953c0.76465,0.81445,1.96094,1.5293,3.50684,1.5293
						c1.59473,0,2.22656-0.78125,2.22656-1.51172c0-0.99805-1.17969-1.29688-2.52637-1.64551
						c-1.81055-0.44824-3.9375-0.98047-3.9375-3.32324c0-1.82812,1.61133-3.24023,4.03809-3.24023
						c1.72754,0,3.12305,0.54883,4.15332,1.54492l-1.11328,1.44531c-0.86328-0.86328-2.04395-1.26172-3.20703-1.26172
						c-1.14648,0-1.87695,0.54785-1.87695,1.37891c0,0.86328,1.12988,1.14648,2.44238,1.47852
						c1.82812,0.46484,4.00488,1.03027,4.00488,3.43945c0,1.84473-1.29688,3.42383-4.28711,3.42383
						c-2.04395,0-3.52344-0.71484-4.50391-1.76172L760.76465,291.01953z"/>
					<path class="st6" d="M773.79199,285.85254c2.41016,0,3.95508,1.84473,3.95508,4.37012v0.41602h-6.19824
						c0.13281,1.21289,1.04688,2.20898,2.55957,2.20898c0.78027,0,1.71094-0.31543,2.27637-0.88086l0.79785,1.14648
						c-0.79785,0.76562-1.97754,1.16406-3.25684,1.16406c-2.41016,0-4.2041-1.67871-4.2041-4.2207
						C769.72168,287.73047,771.41602,285.85254,773.79199,285.85254z M771.53223,289.4082h4.52051
						c-0.0332-0.94727-0.68164-2.12695-2.26074-2.12695C772.29688,287.28125,771.61523,288.42773,771.53223,289.4082z"/>
					<path class="st6" d="M779.47559,286.05176h1.74512v1.17969c0.59766-0.76465,1.56152-1.3623,2.6084-1.3623v1.72852
						c-0.14941-0.0332-0.33203-0.05078-0.54785-0.05078c-0.73145,0-1.71191,0.49902-2.06055,1.06445v5.4668h-1.74512V286.05176z"/>
					<path class="st6" d="M784.07812,286.05176h1.86133l2.34277,6.01465l2.34277-6.01465h1.87793l-3.27344,8.02637h-1.87793
						L784.07812,286.05176z"/>
					<path class="st6" d="M793.38379,283.64258c0-0.59863,0.49805-1.08008,1.08008-1.08008
						c0.59766,0,1.08008,0.48145,1.08008,1.08008c0,0.59766-0.48242,1.08008-1.08008,1.08008
						C793.88184,284.72266,793.38379,284.24023,793.38379,283.64258z M793.59961,286.05176h1.74512v8.02637h-1.74512V286.05176z"/>
					<path class="st6" d="M801.25977,285.85254c1.56152,0,2.50879,0.66504,3.07324,1.42871l-1.14648,1.06348
						c-0.44824-0.63184-1.06348-0.94727-1.84375-0.94727c-1.46289,0-2.42676,1.09668-2.42676,2.65918
						c0,1.56152,0.96387,2.6748,2.42676,2.6748c0.78027,0,1.39551-0.33203,1.84375-0.94629l1.14648,1.0625
						c-0.56445,0.76465-1.51172,1.42969-3.07324,1.42969c-2.44336,0-4.1543-1.77832-4.1543-4.2207
						C797.10547,287.63086,798.81641,285.85254,801.25977,285.85254z"/>
					<path class="st6" d="M809.43457,285.85254c2.41016,0,3.95508,1.84473,3.95508,4.37012v0.41602h-6.19824
						c0.13281,1.21289,1.04688,2.20898,2.55957,2.20898c0.78027,0,1.71094-0.31543,2.27637-0.88086l0.79785,1.14648
						c-0.79785,0.76562-1.97754,1.16406-3.25684,1.16406c-2.41016,0-4.2041-1.67871-4.2041-4.2207
						C805.36426,287.73047,807.05859,285.85254,809.43457,285.85254z M807.1748,289.4082h4.52051
						c-0.0332-0.94727-0.68164-2.12695-2.26074-2.12695C807.93945,287.28125,807.25781,288.42773,807.1748,289.4082z"/>
					<path class="st6" d="M824.00684,291.56836h-5.28418v-1.5625l4.55371-7.01172h2.6748v6.86328h1.47949v1.71094h-1.47949v2.50977
						h-1.94434V291.56836z M820.63379,289.85742h3.37305v-5.11914L820.63379,289.85742z"/>
				</g>
			</g>
			<g>
				<path class="st16" d="M771.94562,311.87424v-4.10541c0-0.01471,0.01202-0.02676,0.02673-0.02676h62.54364
					c0.01471,0,0.02673,0.01205,0.02673,0.02676v68.36429c0,0.01471-0.01202,0.02676-0.02673,0.02679l-4.09485,0.00409"/>
			</g>
			<g>
				<path class="st17" d="M761.28271,321.39069v-4.10287c0-0.01471,0.01208-0.02673,0.02679-0.02673h62.54358
					c0.01471,0,0.02679,0.01202,0.02679,0.02673v68.36432c0,0.01471-0.01208,0.02673-0.02679,0.02673h-4.10284"/>
			</g>
			<g>
				<g>
					<g>
						<path class="st18" d="M770.92578,333.18066h4.86914c2.32617,0,3.62207,1.59473,3.62207,3.47363
							c0,1.87695-1.3125,3.47266-3.62207,3.47266h-2.9248v4.13672h-1.94434V333.18066z M775.52832,334.89258h-2.6582v3.52246h2.6582
							c1.09668,0,1.89453-0.69824,1.89453-1.76074C777.42285,335.58984,776.625,334.89258,775.52832,334.89258z"/>
						<path class="st18" d="M780.23145,340.24219c0-2.29297,1.57812-4.20312,4.12012-4.20312
							c2.57617,0,4.1377,1.91016,4.1377,4.20312c0,2.31055-1.56152,4.2207-4.1377,4.2207
							C781.80957,344.46289,780.23145,342.55273,780.23145,340.24219z M786.67871,340.24219
							c0-1.41211-0.83105-2.6582-2.32715-2.6582c-1.47852,0-2.30957,1.24609-2.30957,2.6582
							c0,1.42969,0.83105,2.67578,2.30957,2.67578C785.84766,342.91797,786.67871,341.67188,786.67871,340.24219z"/>
						<path class="st18" d="M795.90039,343.16797c-0.61426,0.79688-1.54492,1.29492-2.5752,1.29492
							c-2.06055,0-3.57227-1.56152-3.57227-4.20312c0-2.5918,1.49512-4.2207,3.57227-4.2207
							c0.99707,0,1.92773,0.46484,2.5752,1.3125v-4.1709h1.74512v11.08301h-1.74512V343.16797z M795.90039,338.66406
							c-0.39844-0.59766-1.24609-1.08008-2.07715-1.08008c-1.37891,0-2.25977,1.11328-2.25977,2.67578
							c0,1.54492,0.88086,2.6582,2.25977,2.6582c0.83105,0,1.67871-0.46484,2.07715-1.06348V338.66406z"/>
					</g>
				</g>
				<g>
					<path class="st19" d="M815.49683,395.17902c0,0.01471-0.01202,0.02676-0.02673,0.02676h-62.54364
						c-0.01471,0-0.02673-0.01205-0.02673-0.02676v-68.36429c0-0.01471,0.01202-0.02676,0.02673-0.02676h62.54364
						c0.01471,0,0.02673,0.01205,0.02673,0.02676V395.17902z"/>
				</g>
				<line class="st20" x1="752.89972" y1="350.22604" x2="815.49683" y2="350.22604"/>
				<g>
					<circle class="st1" cx="783.89026" cy="372.24408" r="17.55274"/>
					<g>
						<g>
							<path class="st6" d="M778.05762,375.41211h-4.33301l-0.61133,1.67188h-2.26758l3.75098-9.69922h2.58887l3.7373,9.69922
								h-2.25391L778.05762,375.41211z M774.27734,373.62305h3.21387l-1.59961-4.44922L774.27734,373.62305z"/>
							<path class="st6" d="M781.5957,379.75977v-9.69922h1.84668v0.88672c0.53809-0.68262,1.30859-1.06055,2.16699-1.06055
								c1.80273,0,3.1123,1.33789,3.1123,3.67871s-1.30957,3.69336-3.1123,3.69336c-0.8291,0-1.59961-0.34863-2.16699-1.0752
								v3.57617H781.5957z M785.02734,371.5293c-0.5957,0-1.2793,0.34961-1.58496,0.80078v2.48633
								c0.30566,0.43555,0.98926,0.79883,1.58496,0.79883c1.06152,0,1.77441-0.82812,1.77441-2.0498
								C786.80176,372.3584,786.08887,371.5293,785.02734,371.5293z"/>
							<path class="st6" d="M789.88281,379.75977v-9.69922h1.84668v0.88672c0.53809-0.68262,1.30859-1.06055,2.16699-1.06055
								c1.80273,0,3.1123,1.33789,3.1123,3.67871s-1.30957,3.69336-3.1123,3.69336c-0.8291,0-1.59961-0.34863-2.16699-1.0752
								v3.57617H789.88281z M793.31445,371.5293c-0.5957,0-1.2793,0.34961-1.58496,0.80078v2.48633
								c0.30566,0.43555,0.98926,0.79883,1.58496,0.79883c1.06152,0,1.77441-0.82812,1.77441-2.0498
								C795.08887,372.3584,794.37598,371.5293,793.31445,371.5293z"/>
						</g>
					</g>
				</g>
			</g>
		</g>
		<g id="Group_97-2_5_">
			<g id="Path_450_5_">
				<path class="st21" d="M1150.82385,120.5755c5.8457,0,14.30847-1.20897,14.30847-8.16409
					c0.01624-0.53477-0.03149-1.06955-0.14221-1.59299l-3.48474-15.13342c-0.81067-3.32822-1.50757-4.83587-7.35327-7.75161
					c-4.53723-2.31837-14.40808-6.15862-17.33801-6.15862s-3.52734,3.52734-6.75598,3.52734s-5.43323-2.63128-8.36328-2.63128
					c-2.92993,0-4.62244,1.92012-6.0448,5.84571c0,0-3.92554,11.09405-4.43762,12.70126
					c-0.07593,0.29723-0.10938,0.60368-0.09961,0.91028c0,4.26694,16.96826,18.49007,39.6969,18.49007 M1166.02844,115.28448
					c0.43994,1.54497,0.71179,3.13295,0.81067,4.73631c0,6.54264-7.35339,10.16954-17.06775,10.16954
					c-21.87524,0-41.01953-12.80082-41.01953-21.24937c-0.00244-1.17946,0.23975-2.3466,0.71118-3.42778
					c-7.86548,0.39825-18.03503,1.80634-18.03503,10.78114c0,14.70673,34.86096,32.85545,62.46814,32.85545
					c21.16406,0,26.51184-9.57217,26.51184-17.06776c0-5.94527-5.14868-12.68704-14.40796-16.72642"/>
			</g>
			<g id="Path_451_5_">
				<path d="M1166.0426,115.24182c0.42969,1.54674,0.69666,3.13411,0.79651,4.73631c0,6.54264-7.35339,10.16955-17.06775,10.16955
					c-21.87524,0-41.01953-12.80083-41.01953-21.33471c0.0094-1.17823,0.25098-2.34306,0.71118-3.42777l1.70667-4.26694
					c-0.07581,0.29723-0.10938,0.60368-0.09949,0.91028c0,4.26695,16.96814,18.49009,39.71094,18.49009
					c5.84583,0,14.30847-1.20897,14.30847-8.16408c0.01624-0.53477-0.03149-1.06956-0.14221-1.59299L1166.0426,115.24182z"/>
			</g>
		</g>
		<g>
			<path class="st22" d="M597.39929,310.58545c0,5.5-4.5,10-10,10H425.07217c-5.5,0-10-4.5-10-10v-118.7254c0-5.5,4.5-10,10-10
				h162.32712c5.5,0,10,4.5,10,10V310.58545z"/>
		</g>
		<g>
			<path class="st6" d="M597.39929,310.58545c0,5.5-4.5,10-10,10H425.07217c-5.5,0-10-4.5-10-10v-118.7254c0-5.5,4.5-10,10-10
				h162.32712c5.5,0,10,4.5,10,10V310.58545z"/>
			<path class="st23" d="M597.39929,310.58545c0,5.5-4.5,10-10,10H425.07217c-5.5,0-10-4.5-10-10V191.86011c0-5.5,4.5-10,10-10
				h162.32712c5.5,0,10,4.5,10,10V310.58545z"/>
		</g>
		<g>
			<path class="st1" d="M485.36719,284.31445v8.30078h-1.99854v-12.00977h2.0166l4.33936,7.99414v-7.99414h1.99902v12.00977
				h-1.90918L485.36719,284.31445z"/>
			<path class="st1" d="M498.47168,280.40723c1.94434,0,3.13281,1.15234,3.81738,2.55762l-1.62109,0.75586
				c-0.43164-0.88281-1.15234-1.54883-2.19629-1.54883c-1.71094,0-2.86328,1.71094-2.86328,4.44727
				c0,2.71875,1.15234,4.44727,2.86328,4.44727c0.88281,0,1.60254-0.41406,1.99902-0.86426v-2.23242h-2.52148v-1.74609h4.41211
				v4.77148c-0.95508,1.13379-2.2334,1.85449-3.88965,1.85449c-2.95312,0-4.89746-2.52148-4.89746-6.23047
				C493.57422,282.89258,495.51855,280.40723,498.47168,280.40723z"/>
			<path class="st1" d="M504.39258,280.60547h1.99902v12.00977h-1.99902V280.60547z"/>
			<path class="st1" d="M510.69336,284.31445v8.30078h-1.99902v-12.00977h2.0166l4.33887,7.99414v-7.99414h1.99902v12.00977h-1.9082
				L510.69336,284.31445z"/>
			<path class="st1" d="M523.00586,288.04199l-2.4668,4.57324h-2.30469l3.54688-6.13965l-3.33105-5.87012h2.28711l2.26855,4.32129
				l2.26855-4.32129h2.30469l-3.33105,5.85156l3.54688,6.1582h-2.30469L523.00586,288.04199z"/>
			<path class="st1" d="M444.70557,296.60547h1.99854v12.00977h-1.99854V296.60547z"/>
			<path class="st1" d="M453.72461,302.69141c0-1.02637-0.46777-1.4043-1.24219-1.4043s-1.44043,0.59375-1.76465,1.20605v6.12207
				h-1.80029v-8.69629h1.80029v1.16992c0.46826-0.70215,1.44043-1.38672,2.521-1.38672c1.56641,0,2.28662,0.86426,2.28662,2.35938
				v6.55371h-1.80078V302.69141z"/>
			<path class="st1" d="M458.31348,309.65918c0.59424,0.64844,1.35059,0.97266,2.25049,0.97266
				c1.08057,0,2.05273-0.59375,2.05273-2.17871v-1.24219c-0.52197,0.88184-1.36816,1.42188-2.23242,1.42188
				c-1.94482,0-3.16895-1.67383-3.16895-4.46484c0-2.75488,1.20605-4.46582,3.16895-4.46582
				c0.84619,0,1.69238,0.4502,2.23242,1.38672v-1.16992h1.78271v8.39062c0,3.00684-1.87256,3.83496-3.74512,3.83496
				c-1.24268,0-2.21484-0.28809-3.0791-1.09863L458.31348,309.65918z M462.6167,302.47559
				c-0.30615-0.64844-1.0083-1.18848-1.69238-1.18848c-1.24268,0-1.85449,1.20605-1.85449,2.88086
				c0,1.65625,0.61182,2.86328,1.85449,2.86328c0.68408,0,1.38623-0.54102,1.69238-1.18848V302.47559z"/>
			<path class="st1" d="M466.52148,299.91895h1.80029v1.27832c0.50439-0.84668,1.42236-1.47656,2.39502-1.47656v1.78223
				c-0.14453-0.03613-0.30615-0.05371-0.46826-0.05371c-0.73828,0-1.56641,0.55762-1.92676,1.20605v5.95996h-1.80029V299.91895z"/>
			<path class="st1" d="M475.36035,299.70215c2.3584,0,3.61914,1.99902,3.61914,4.62793v0.52246h-5.52783
				c0.07178,1.42188,0.86426,2.50195,2.26855,2.50195c0.68408,0,1.4585-0.3418,1.96289-0.93555l0.86426,1.08008
				c-0.73828,0.8457-1.83691,1.33203-3.00732,1.33203c-2.39453,0-3.90674-1.87207-3.90674-4.57324
				C471.6333,301.7373,473.0376,299.70215,475.36035,299.70215z M473.43359,303.57422h3.79932
				c-0.01807-1.08105-0.50439-2.41309-1.89062-2.41309C473.9917,301.16113,473.48779,302.5293,473.43359,303.57422z"/>
			<path class="st1" d="M480.72363,306.32812c0.52197,0.57617,1.44043,1.08105,2.34082,1.08105
				c0.8999,0,1.44043-0.41406,1.44043-1.08105c0-0.71973-0.75635-1.04395-1.63867-1.36816
				c-1.22461-0.43164-2.66504-0.9541-2.66504-2.77246c0-1.35059,1.08057-2.48535,2.98926-2.48535
				c1.20605,0,2.17871,0.4502,2.86279,1.11719l-0.75635,1.22363c-0.43213-0.52148-1.20654-0.91797-2.0708-0.91797
				c-0.81006,0-1.33203,0.39648-1.33203,0.9541c0,0.64844,0.72021,0.9541,1.58447,1.26074
				c1.24219,0.4502,2.73682,0.99023,2.73682,2.89844c0,1.49512-1.20654,2.59277-3.11523,2.59277
				c-1.33252,0-2.44873-0.4502-3.18701-1.24219L480.72363,306.32812z"/>
			<path class="st1" d="M487.94141,306.32812c0.52197,0.57617,1.44043,1.08105,2.34082,1.08105s1.44043-0.41406,1.44043-1.08105
				c0-0.71973-0.75684-1.04395-1.63867-1.36816c-1.22461-0.43164-2.66504-0.9541-2.66504-2.77246
				c0-1.35059,1.08057-2.48535,2.98926-2.48535c1.20605,0,2.17871,0.4502,2.8623,1.11719l-0.75586,1.22363
				c-0.43164-0.52148-1.20605-0.91797-2.07031-0.91797c-0.81055,0-1.33301,0.39648-1.33301,0.9541
				c0,0.64844,0.7207,0.9541,1.58496,1.26074c1.24219,0.4502,2.73633,0.99023,2.73633,2.89844
				c0,1.49512-1.20605,2.59277-3.11426,2.59277c-1.33301,0-2.44922-0.4502-3.1875-1.24219L487.94141,306.32812z"/>
			<path class="st1" d="M498.48828,302.61914c0-3.61914,1.89062-6.21191,4.84375-6.21191c2.14258,0,3.22266,1.31445,3.85254,2.64746
				l-1.65625,0.73828c-0.41406-0.95508-1.15234-1.62109-2.19629-1.62109c-1.71094,0-2.80957,1.87305-2.80957,4.44727
				c0,2.55664,1.09863,4.42969,2.80957,4.42969c1.09766,0,1.83594-0.75586,2.21484-1.76465l1.65625,0.73828
				c-0.6123,1.4043-1.69238,2.80859-3.87109,2.80859C500.37891,308.83105,498.48828,306.2207,498.48828,302.61914z"/>
			<path class="st1" d="M508.26172,304.25781c0-2.44824,1.29688-4.55566,3.76367-4.55566s3.7627,2.10742,3.7627,4.55566
				c0,2.44922-1.2959,4.57324-3.7627,4.57324S508.26172,306.70703,508.26172,304.25781z M513.93359,304.25781
				c0-1.56641-0.59375-2.9707-1.9082-2.9707s-1.90918,1.4043-1.90918,2.9707s0.59473,2.98926,1.90918,2.98926
				S513.93359,305.82422,513.93359,304.25781z"/>
			<path class="st1" d="M522.28613,302.69141c0-1.02637-0.46875-1.4043-1.24316-1.4043c-0.77344,0-1.44043,0.59375-1.76367,1.20605
				v6.12207h-1.80078v-8.69629h1.80078v1.16992c0.46777-0.70215,1.44043-1.38672,2.52051-1.38672
				c1.56641,0,2.28613,0.86426,2.28613,2.35938v6.55371h-1.7998V302.69141z"/>
			<path class="st1" d="M526.53223,306.6709v-5.18555h-1.13477v-1.56641h1.13477v-2.37695h1.7998v2.37695h1.44043v1.56641h-1.44043
				v4.80762c0,0.59375,0.19824,0.9541,0.66699,0.9541c0.28809,0,0.55762-0.12598,0.68359-0.28809l0.43262,1.35059
				c-0.32422,0.32324-0.82812,0.52148-1.56641,0.52148C527.17969,308.83105,526.53223,308.09277,526.53223,306.6709z"/>
			<path class="st1" d="M531.30176,299.91895h1.80078v1.27832c0.50391-0.84668,1.42188-1.47656,2.39453-1.47656v1.78223
				c-0.14453-0.03613-0.30664-0.05371-0.46875-0.05371c-0.73828,0-1.56641,0.55762-1.92578,1.20605v5.95996h-1.80078V299.91895z"/>
			<path class="st1" d="M536.41309,304.25781c0-2.44824,1.29688-4.55566,3.76367-4.55566s3.7627,2.10742,3.7627,4.55566
				c0,2.44922-1.2959,4.57324-3.7627,4.57324S536.41309,306.70703,536.41309,304.25781z M542.08496,304.25781
				c0-1.56641-0.59375-2.9707-1.9082-2.9707s-1.90918,1.4043-1.90918,2.9707s0.59473,2.98926,1.90918,2.98926
				S542.08496,305.82422,542.08496,304.25781z"/>
			<path class="st1" d="M545.62988,296.60547h1.80078v12.00977h-1.80078V296.60547z"/>
			<path class="st1" d="M549.55371,296.60547h1.80078v12.00977h-1.80078V296.60547z"/>
			<path class="st1" d="M556.77246,299.70215c2.3584,0,3.61914,1.99902,3.61914,4.62793v0.52246h-5.52734
				c0.07129,1.42188,0.86328,2.50195,2.26855,2.50195c0.68359,0,1.45801-0.3418,1.96191-0.93555l0.86426,1.08008
				c-0.73828,0.8457-1.83594,1.33203-3.00684,1.33203c-2.39453,0-3.90723-1.87207-3.90723-4.57324
				C553.04492,301.7373,554.44922,299.70215,556.77246,299.70215z M554.8457,303.57422h3.79883
				c-0.01758-1.08105-0.50391-2.41309-1.89062-2.41309C555.4043,301.16113,554.89941,302.5293,554.8457,303.57422z"/>
			<path class="st1" d="M562.00977,299.91895h1.80078v1.27832c0.50391-0.84668,1.42188-1.47656,2.39453-1.47656v1.78223
				c-0.14453-0.03613-0.30664-0.05371-0.46875-0.05371c-0.73828,0-1.56641,0.55762-1.92578,1.20605v5.95996h-1.80078V299.91895z"/>
		</g>
		<g>
			<path class="st24" d="M540.2088,212.6781c0.00586-0.70187-0.16968-1.41541-0.54584-2.06792
				c-0.37708-0.65244-0.90741-1.16049-1.51819-1.50658l-31.05981-17.93181v-0.00099
				c-0.60495-0.3568-1.30978-0.56136-2.06308-0.56136c-0.75235,0-1.45715,0.20456-2.06213,0.56136v0.00099l-31.05881,17.93181
				c-0.61176,0.34608-1.14206,0.8541-1.5192,1.50653c-0.01886,0.03276-0.03122,0.06718-0.04907,0.1002
				c7.67255,3.3497,13.05057,11.00653,13.05057,19.89932c0,8.89352-5.37909,16.5511-13.05286,19.90013
				c0.01797,0.03326,0.03043,0.06795,0.04941,0.10088h0.00098c0.37616,0.65244,0.90649,1.16144,1.51822,1.50662l31.05884,17.93181
				l0.00095-0.00101c0.60596,0.35678,1.31076,0.56137,2.06409,0.56137c0.7533,0,1.45908-0.20459,2.06406-0.56137l31.05975-17.93181
				c0.61176-0.34517,1.14014-0.85318,1.51727-1.50562c0.37714-0.65251,0.55261-1.3651,0.54584-2.06796v-35.86362L540.2088,212.6781z
				"/>
			<circle class="st24" cx="461.6796" cy="230.60968" r="16.6074"/>
			<g>
				<path class="st6" d="M461.6796,242.33293c7.5661-4.12759,9.9903-8.72629,9.32526-18.89853
					c-0.02145-0.32094-0.29007-0.56894-0.61185-0.56551c-3.54236,0.03261-6.24973-0.7028-8.43024-1.87071
					c-0.17676-0.09526-0.38959-0.09526-0.56635,0c-2.18051,1.16791-4.88788,1.90332-8.43024,1.87071
					c-0.32178-0.00343-0.59125,0.24457-0.61185,0.56551C451.6893,233.60664,454.11349,238.20534,461.6796,242.33293"/>
			</g>
			<g>
				<rect x="491.51004" y="219.35733" class="st25" width="22.66725" height="22.66723"/>
				<rect x="520.83148" y="216.72908" class="st26" width="6.54413" height="6.54413"/>
				<rect x="520.83148" y="227.33737" class="st26" width="6.54413" height="6.54413"/>
				<rect x="520.83148" y="237.94566" class="st26" width="6.54413" height="6.54413"/>
				<g>
					<line class="st26" x1="514.69135" y1="230.69095" x2="520.44708" y2="230.69095"/>
					<line class="st26" x1="514.38477" y1="233.39882" x2="520.92078" y2="238.37645"/>
					<line class="st26" x1="514.38477" y1="227.98308" x2="520.92078" y2="223.00545"/>
				</g>
			</g>
		</g>
		<line class="st27" x1="658.26544" y1="209.1102" x2="550.20996" y2="209.1102"/>
		<path class="st27" d="M658.26538,209.1102c5.52289,0,10.00006-4.47716,10-10"/>
		<g>
			<g>
				<g>
					<line class="st28" x1="668.2655" y1="199.1102" x2="668.26544" y2="192.87076"/>
				</g>
			</g>
			<g>
				<line class="st28" x1="668.26544" y1="192.87076" x2="673.03009" y2="197.63542"/>
				<line class="st28" x1="668.26544" y1="192.87076" x2="663.50079" y2="197.63542"/>
			</g>
		</g>
		<line class="st27" x1="783.16565" y1="222.94368" x2="550.20996" y2="222.94368"/>
		<path class="st27" d="M783.16565,222.94368c5.52283-0.00002,10-4.47717,10-10.00002"/>
		<g>
			<g>
				<g>
					<line class="st28" x1="793.16565" y1="212.94366" x2="793.16565" y2="192.87076"/>
				</g>
			</g>
			<g>
				<line class="st28" x1="793.16565" y1="192.87076" x2="797.9303" y2="197.63542"/>
				<line class="st28" x1="793.16565" y1="192.87076" x2="788.401" y2="197.63542"/>
			</g>
		</g>
		<line class="st27" x1="658.26544" y1="250.61067" x2="550.20996" y2="250.61067"/>
		<path class="st27" d="M658.26544,250.61067c5.52289,0.00002,10,4.47717,10,10.00002"/>
		<g>
			<g>
				<g>
					<line class="st28" x1="668.26544" y1="260.61069" x2="668.26544" y2="268.3501"/>
				</g>
			</g>
			<g>
				<line class="st28" x1="668.26544" y1="268.3501" x2="673.03009" y2="263.58545"/>
				<line class="st28" x1="668.26544" y1="268.3501" x2="663.50079" y2="263.58545"/>
			</g>
		</g>
		<line class="st27" x1="783.16565" y1="237.27718" x2="550.20996" y2="237.27718"/>
		<path class="st27" d="M783.16565,237.27718c5.52283,0.00002,10,4.47717,10,10.00002"/>
		<g>
			<g>
				<g>
					<line class="st28" x1="793.16565" y1="247.27719" x2="793.16565" y2="268.3501"/>
				</g>
			</g>
			<g>
				<line class="st28" x1="793.16565" y1="268.3501" x2="797.9303" y2="263.58545"/>
				<line class="st28" x1="793.16565" y1="268.3501" x2="788.401" y2="263.58545"/>
			</g>
		</g>
		<g>
			<path class="st29" d="M1182.07324,218.88089l-0.99207-6.01463c-0.31006-1.92221-1.08508-3.50337-1.67419-3.50337
				s-1.08508,1.61217-1.08508,3.56537v1.58118c0,1.9532-1.61218,3.56537-3.56543,3.56537h-1.58118c-0.12402,0-0.21704,0-0.34094,0
				v4.30946c0.1239,0,0.21692,0,0.34094,0h5.92163C1181.05017,222.38426,1182.3833,220.8031,1182.07324,218.88089"/>
			<path class="st29" d="M1167.90479,213.79636h-9.58008c-0.0929,0-0.15491,0-0.24792,0h-9.85913
				c-0.12402,0-0.21704,0-0.34094,0.03101v-0.9301c0-1.95322-0.49609-3.56538-1.08521-3.56538
				c-0.58899,0-1.36414,1.58116-1.67419,3.50337l-0.99207,6.01463c-0.31006,1.92221,1.02307,3.50337,2.97632,3.50337h5.92163
				c0.62012,0,1.1781-0.093,1.67419-0.24802c-0.18604,1.0231-1.08508,1.76718-2.13928,1.76718h-8.30884
				c-1.33313,0-2.3562-1.20912-2.13916-2.54227l0.83704-5.05354c0.21704-1.33313-0.80603-2.54227-2.13928-2.54227h-41.26526
				c-0.86816,0-1.64319,0.52705-1.98425,1.27113l-7.75085,11.90526c-0.12402,0.18602-0.12402,0.46506,0.03101,0.65108
				l1.51917,1.76718c0.18604,0.21703,0.5271,0.24803,0.74414,0.06201l5.27051-4.15445v25.29869
				c0,1.20912,0.96106,2.17023,2.17029,2.17023h11.71924c1.20911,0,2.17017-0.96111,2.17017-2.17023v-8.80493
				c0-1.20914,0.96106-2.17024,2.17029-2.17024h29.26709c1.20911,0,2.17017,0.96111,2.17017,2.17024v8.80493
				c0,1.20912,0.96118,2.17023,2.17029,2.17023h11.71924c1.20911,0,2.17017-0.96111,2.17017-2.17023v-9.45601h-6.23169
				c-1.95312,0-3.56531-1.61217-3.56531-3.56537v-6.07664c0-1.14713,0.55798-2.20123,1.42615-2.85231v7.25478
				c0,1.9532,1.61218,3.56537,3.56531,3.56537h9.58008c1.95325,0,3.56531-1.61217,3.56531-3.56537v-18.47797
				C1171.43909,215.40852,1169.85803,213.79636,1167.90479,213.79636"/>
		</g>
		<g>
			<circle class="st30" cx="267.88196" cy="231.0191" r="49.99999"/>
			<g>
				<g>
					<path class="st31" d="M256.27206,208.96333c-0.64093-1.67496-2.88541-2.86736-7.65845-3.00937l0,0
						c-4.37805,0-9.24908,2.64259-9.24908,9.51328v5.02101v1.32129c0,4.74393,2.16005,8.83876,5.28519,10.74718"/>
					<path class="st32" d="M243.32843,231.56932v2.13191c0,1.3213,0.66064,3.30325-6.60649,4.62454
						c-6.5,1.18198-7.66968,7.26715-7.66968,7.26715h17.18944"/>
					<line class="st33" x1="242.00713" y1="236.6297" x2="247.46951" y2="243.88371"/>
				</g>
				<g>
					<g>
						<path class="st31" d="M296.41992,221.80954v-1.32129v-5.02101c0-6.87068-4.87097-9.51328-9.24911-9.51328l0,0
							c0,0-4.35928-0.25172-7.02222,2.13196"/>
						<path class="st32" d="M289.52219,245.59293h17.18945c0,0-1.1749-6.05777-7.66974-7.26715
							c-7.08136-1.31839-6.60651-3.30324-6.60651-4.62454l0.02063-2.08224"/>
						<line class="st33" x1="288.29437" y1="243.88371" x2="293.77731" y2="236.58932"/>
					</g>
				</g>
				<path class="st31" d="M291.13455,232.55672c3.12515-1.90842,5.28522-6.00325,5.28522-10.74718"/>
				<path class="st33" d="M261.58939,236.51683c0,1.56665,0.30695,1.84172-7.69104,4.13982
					c-7.52875,2.16325-9.09387,8.61658-9.09387,8.61658h46.36313c0,0-1.4816-6.76952-9.09396-8.61658
					c-8.20609-1.99115-7.59219-2.88013-7.59219-4.44678"/>
				<polyline class="st33" points="260.16495,238.6456 267.99823,249.27322 275.83148,238.59775 				"/>
				<g>
					<path class="st33" d="M281.54138,237.43768h-8.90164c3.70544-2.26279,5.88632-6.9882,6.44601-12.5851
						c0.30695-3.06955-0.30695-6.75299-0.30695-6.75299s-0.91016-8.90166-6.75299-8.90166
						c-5.81766,0-8.07993,4.75902-15.89459,5.44131l-1.90872,0.08385c0.67343,0,1.30568-0.0312,1.90872-0.08385l1.40924-0.0619
						c-0.36548,1.38901-0.50882,4.92947-0.50882,4.92947v1.56665c0,5.62483,2.38708,14.10143,6.09253,16.36421h-8.90167
						c0,0-2.45563,0.30696-2.45563-3.68344v-3.68344c-0.61391-29.16061,16.26855-27.9328,16.26855-27.9328
						c19.952-0.30696,16.88245,30.38843,16.88245,30.38843S285.22482,237.13074,281.54138,237.43768z"/>
					<path class="st34" d="M256.13123,214.63925l-1.90872,0.08385C254.89594,214.7231,255.52818,214.69189,256.13123,214.63925z"/>
				</g>
				<path class="st33" d="M239.36453,216.76141c7.9278,0,7.2086-6.00455,15.04311-5.02631"/>
				<path class="st33" d="M295.66751,216.44241c-6.9426,0-6.31277-5.25836-13.17371-4.40169"/>
			</g>
		</g>
	</g>
</g>
<g id="_x3C_Layer_x3E_">
</g>
</svg>
