<?xml version="1.0" encoding="utf-8"?>
<!-- Generator: Adobe Illustrator 25.3.1, SVG Export Plug-In . SVG Version: 6.00 Build 0)  -->
<svg version="1.1" id="Layer_1" xmlns="http://www.w3.org/2000/svg" xmlns:xlink="http://www.w3.org/1999/xlink" x="0px" y="0px"
	 viewBox="0 0 160.3 228.9" style="enable-background:new 0 0 160.3 228.9;" xml:space="preserve">
<style type="text/css">
	.st0{fill:#7FD24A;}
	.st1{fill:#438C15;}
	.st2{opacity:0.5;fill:#7FD24A;enable-background:new    ;}
	.st3{opacity:0.2;enable-background:new    ;}
	.st4{clip-path:url(#SVGID_2_);}
	.st5{fill:none;stroke:#FFFFFF;stroke-linecap:round;stroke-linejoin:round;}
	.st6{fill:#CCCCCC;}
	.st7{fill:#009CD6;}
	.st8{fill:#69C0EC;}
	.st9{fill:#FFFFFF;}
	.st10{fill:#D53196;}
	.st11{fill:#FD7FD3;}
	.st12{fill:#1D9CD3;}
	.st13{fill:#62C026;}
	.st14{fill:#189332;}
	.st15{fill:#1B8C35;}
	.st16{fill:#438741;}
	.st17{fill:#975725;}
	.st18{fill:#1C6333;}
	.st19{fill:#8D5B43;}
	.st20{fill:#874B2B;}
	.st21{opacity:5.000000e-02;enable-background:new    ;}
</style>
<symbol  id="New_Symbol_37" viewBox="-43.3 -50 86.6 100">
	<polygon class="st0" points="0,0 0,50 43.3,25 43.3,-25 	"/>
	<polygon class="st1" points="0,-50 -43.3,-25 0,0 43.3,-25 	"/>
	<polygon class="st2" points="0,-50 -43.3,-25 0,0 43.3,-25 	"/>
	<polygon class="st1" points="-43.3,-25 -43.3,25 0,50 0,0 	"/>
</symbol>
<g id="developer-seated">
	<g class="st3">
		<polyline points="90.3,150.9 26.2,187.8 27.4,188.7 90.3,225.4 152.7,189.2 154.6,188.1 90.3,150.9 		"/>
	</g>
	<g>
		<defs>
			<rect id="SVGID_1_" x="25.5" y="76.1" width="129.5" height="149.5"/>
		</defs>
		<clipPath id="SVGID_2_">
			<use xlink:href="#SVGID_1_"  style="overflow:visible;"/>
		</clipPath>
		<g class="st4">
			<line class="st5" x1="90.2" y1="150.9" x2="154.5" y2="188"/>
			<line class="st5" x1="90.2" y1="150.9" x2="26" y2="188"/>
			<line class="st5" x1="90.2" y1="76.7" x2="90.2" y2="150.9"/>
			<g>
				<defs>
					<rect id="SVGID_3_" x="44.3" y="97.9" width="91.8" height="106"/>
				</defs>
				<clipPath id="SVGID_4_">
					<use xlink:href="#SVGID_3_"  style="overflow:visible;"/>
				</clipPath>
				<g transform="matrix(1 0 0 1 -7.629395e-06 -1.525879e-05)" style="clip-path:url(#SVGID_4_);">
					
						<use xlink:href="#New_Symbol_37"  width="86.6" height="100" x="-43.3" y="-50" transform="matrix(1.06 0 0 1.06 90.2372 150.86)" style="overflow:visible;"/>
				</g>
			</g>
			<polygon class="st5" points="90.2,225.1 26,188 26,113.8 90.2,76.7 154.5,113.8 154.5,188 			"/>
			<line class="st5" x1="90.2" y1="150.9" x2="26" y2="113.8"/>
			<line class="st5" x1="90.2" y1="150.9" x2="154.5" y2="113.8"/>
			<line class="st5" x1="90.2" y1="225.1" x2="90.2" y2="150.9"/>
		</g>
	</g>
	<g class="st3">
		<path d="M83.1,187.5c0,0,10.1,1.8,9.7,6.6c-0.2,1.2-0.9,2.2-1.9,2.8c-1.5,1-4.3,3.4-4.5,7.2c-0.1,2.3-1,4.6-2.5,6.4
			c-2.3,3-5.6,5.1-9.3,5.9c-3.1,0.6-5.6-2.1-4.1-4.5c2.6-4.3,5.8-11.5,4.2-17.8C74.7,194.1,83.3,192.9,83.1,187.5z"/>
	</g>
	<g>
		<path class="st6" d="M76.8,112.7c0,0-2.1,4.5-0.2,7.6l0,0c0,0,1.2,0.7,0.9-1.1c0,0-0.8-4.3,0.4-6.2l0,0"/>
	</g>
	<g class="st3">
		<path d="M32.7,192.2c0,0,5.7,8.5,1.9,11.5c-1,0.7-2.2,0.9-3.3,0.6c-1.8-0.4-5.4-0.8-8.3,1.7c-1.8,1.5-4,2.4-6.3,2.6
			C12.9,209,9.2,208,6,205.9c-2.5-1.8-2.3-5.5,0.4-6.1c4.9-1.1,12.3-3.7,15.8-9.2C22,190.6,28.8,196,32.7,192.2z"/>
	</g>
	<g>
		<path class="st7" d="M64.4,99.3l-21.9,18.8c-4.6,4-5.8,10.7-2.9,16l28.9,52.2c0.9,1.7,3,2.3,4.7,1.4l4.1-2.2
			c1.6-0.8,2.3-2.7,1.6-4.4L56,125.5l28.3-17.8L64.4,99.3z"/>
	</g>
	<g>
		<path class="st8" d="M80.1,109.8L43,133.5c-4.1,2.6-7.1,6.5-8.5,11.1l-11.2,35.5c-0.7,2.1,0.5,4.3,2.5,4.9c0.1,0,0.2,0.1,0.3,0.1
			l4.9,1.1c1.5,0.3,3.1-0.2,4-1.5c4.7-6.4,18.5-26.4,16.8-39.9c0,0,52.7-12.1,51.5-32.2l0,0l-22.6-3.5L80.1,109.8z"/>
	</g>
	<g>
		<path d="M52.6,100.8l30.5,17.6c2.2,1.3,2,3.6-0.6,5.1l-17.6,10.2c-2.6,1.5-6.6,1.7-8.8,0.4l-30.6-17.6c-2.3-1.3-2-3.6,0.6-5.1
			l17.6-10.2C46.4,99.6,50.4,99.5,52.6,100.8z"/>
	</g>
	<g>
		<path class="st9" d="M51.4,102.6L80,119.1c1.2,0.7,1.1,2-0.3,2.8L62.1,132c-1.5,0.8-3.3,0.9-4.8,0.2l-28.6-16.5
			c-1.2-0.7-1.1-2,0.4-2.8l17.5-10.1C48.1,102,49.9,101.9,51.4,102.6z"/>
	</g>
	<g id="Art-CodeBars">
		<g>
			<path class="st10" d="M66.7,123.9c0.2,0.1,0.5,0.1,0.7,0l0,0l2.7-1.5c0.2-0.1,0.2-0.3,0-0.4l0,0l-16.8-9.7
				c-0.2-0.1-0.5-0.1-0.7,0l-2.7,1.5c-0.2,0.1-0.2,0.3,0,0.4l0,0L66.7,123.9z"/>
		</g>
		<g>
			<path class="st11" d="M47.8,113c0.2,0.1,0.5,0.1,0.7,0l0,0l2.7-1.5c0.2-0.1,0.2-0.3,0-0.4l0,0l-6.5-3.8c-0.2-0.1-0.5-0.1-0.7,0
				l-2.7,1.5c-0.2,0.1-0.2,0.3,0,0.4l0,0L47.8,113z"/>
		</g>
		<g>
			<path class="st12" d="M62,126.6c0.2,0.1,0.5,0.1,0.7,0l2.7-1.5c0.2-0.1,0.2-0.3,0-0.4l0,0L46.9,114c-0.2-0.1-0.5-0.1-0.7,0l0,0
				l-2.7,1.5c-0.2,0.1-0.2,0.3,0,0.4l0,0L62,126.6z"/>
		</g>
		<g>
			<path class="st13" d="M59.2,130.4c0.2,0.1,0.5,0.1,0.7,0l0,0l2.7-1.5c0.1,0,0.2-0.2,0.1-0.3c0-0.1-0.1-0.1-0.1-0.1l0,0l-9.6-5.6
				c-0.2-0.1-0.5-0.1-0.7,0l0,0l-2.7,1.5c0,0-0.4,0.2,0,0.4L59.2,130.4z"/>
		</g>
		<g>
			<path class="st14" d="M76.7,120.3c0.2,0.1,0.2,0.3,0,0.4l0,0l-2.7,1.5c-0.2,0.1-0.5,0.1-0.7,0l0,0L62.5,116c0,0-0.3-0.2,0-0.4
				l2.7-1.6c0.2-0.1,0.5-0.1,0.7,0l0,0L76.7,120.3z"/>
		</g>
	</g>
	<g>
		<path class="st6" d="M48.8,107.4c0,0-0.4,6.5-2.4,5.3c-0.5-0.3-0.5-1.5-0.3-3.1c-0.3,0.4-0.8,0.6-1.3,0.5c0,0,0-0.9,0.2-2.1
			c-0.3,0.1-0.6,0.2-0.9,0.1c0.1-1.6,0.4-3.2,0.8-4.8c0.4-1.3,1-2.5,1.8-3.6c1.1-1.6,2.1-1.8,6.1-4.9l0.2,0.5
			c0.7-0.6,1.6-0.8,2.5-0.4h0.1c1.4,0.7,2.2,2.3,1.8,3.8l-0.8,3.3l-3,4.1c0,0-0.8,2.7-2,2.4s0.4-3.1,0.4-3.1l1.2-2.1
			c0.2-0.6,0.4-0.9-0.2-1.3c-0.3-0.2-0.8,0.2-0.8,0.1S48.8,107.4,48.8,107.4z"/>
	</g>
	<g>
		<path class="st15" d="M72.8,42.3c0,0-23.3,15.1-22.8,53.7c0,0.7,0.4,1.4,1,1.9l4,2.5c1,0.7,2.4,0.4,3.1-0.7
			c0.1-0.2,0.2-0.4,0.3-0.6l7.1-24.3l1.8-16c0.1-0.6,0.2-1.2,0.3-1.7l3.3-11.6L72.8,42.3z"/>
	</g>
	<g>
		<path class="st9" d="M69.9,210.1c0.5,1.8,2,3.2,3.8,3.7l0.4-3.6L69.9,210.1z"/>
	</g>
	<g>
		<path class="st9" d="M87.4,187.5c0,0,3.1,2.2,2.9,4.7l-4.9-1.9L87.4,187.5z"/>
	</g>
	<g>
		<path class="st9" d="M5.3,198.4c0,0-1.1,3.7,0.5,5.2s1.9-3.3,1.9-3.3L5.3,198.4z"/>
	</g>
	<g>
		<path class="st9" d="M82.4,186c0,0,8.3,2,7.8,6.6c-0.1,1.1-0.7,2.1-1.6,2.7c-2.2,1.6-3.7,4.1-3.9,6.9c-0.1,2.2-0.9,4.3-2.2,6.1
			c-1.7,2.3-4.3,4.9-7.8,5.5c-1.7,0.3-3.3-0.8-3.6-2.4c-0.1-0.7,0-1.4,0.3-2c2.2-4.1,5-11,3.9-17.1C75.3,192.2,82.4,191.3,82.4,186z
			"/>
	</g>
	<g>
		<path class="st9" d="M32.4,189.4c0,0,4.6,7.6,0.9,10.6c-0.9,0.7-2,1-3.2,0.8c-2.8-0.5-5.7,0.3-7.8,2.2c-1.7,1.5-3.8,2.5-6.1,2.9
			c-2.9,0.4-6.7,0.4-9.8-1.6c-1.5-1-1.9-3-0.9-4.4c0.4-0.6,1-1.1,1.7-1.3c4.6-1.4,11.7-4.4,15.4-9.7
			C22.6,188.8,28.5,193.3,32.4,189.4z"/>
	</g>
	<g>
		<path class="st16" d="M91.1,41c0,0-2.7,9.8-7.2,6.4l-1.1,1c0,0,6.9,4.5,9.8-6.7L91.1,41z"/>
	</g>
	<g>
		<path class="st17" d="M83.9,47.4c0,0,4.2-1.7,6.7-8.4l0.4,1.3c-0.9,3.4-3.3,6.2-6.6,7.5L83.9,47.4z"/>
	</g>
	<g>
		<path class="st6" d="M81,184.3c0,0,8.3,2,7.8,6.6c-0.1,1.1-0.7,2.1-1.6,2.7c-2.2,1.6-3.7,4.1-3.9,6.9c-0.1,2.2-0.9,4.3-2.2,6.1
			c-1.7,2.3-4.3,4.9-7.8,5.5c-1.7,0.3-3.3-0.8-3.6-2.5c-0.1-0.7,0-1.4,0.3-2c2.2-4.1,5-11,3.9-17.1C73.9,190.5,81,189.6,81,184.3z"
			/>
	</g>
	<g>
		<path class="st6" d="M32.4,187.5c0,0,4.6,7.5,0.9,10.6c-0.9,0.7-2,1-3.2,0.8c-2.8-0.5-5.7,0.3-7.8,2.1c-1.7,1.5-3.8,2.5-6.1,2.9
			c-2.9,0.4-6.7,0.4-9.8-1.6c-1.5-1-1.9-3-0.9-4.4c0.4-0.6,1-1.1,1.7-1.3c4.6-1.4,11.7-4.4,15.4-9.7
			C22.6,186.9,28.5,191.4,32.4,187.5z"/>
	</g>
	<g>
		<path class="st18" d="M73.5,40.2c0,0-7.6,8.8-8,34.6c-0.1,6.5,0.9,11.7,0,18.1c-0.2,2.2-0.6,4.3-1.2,6.4c0,0,32.1,24.3,40.6,8
			c0,0-6.4-52.8,0-56C104.9,51.4,90,33.3,73.5,40.2z"/>
	</g>
	<g>
		<path class="st13" d="M103.9,50.8c0,0-14.4,19.2-6.9,62.9l6.4-1.1C103.3,112.7,104.9,57.8,103.9,50.8z"/>
	</g>
	<g>
		<path class="st19" d="M90.6,39c2.2-5.4,1.7-18.2-0.9-22.8c-2.8-5-9.3-5.6-11.8-4.9C61.6,16,67.4,31.6,69.6,37.8S76.9,50.3,80,49.7
			c1.5-0.4,2.8-1.2,3.9-2.2c2.3,2.1,4.6-0.2,6.2-2.6c1.1-1.7,1.3-3.8,0.6-5.7L90.6,39L90.6,39z"/>
	</g>
	<g>
		<path class="st20" d="M83.9,47.4c0,0,6.5-7.4,6.3-12.2l0.5,3.9c0,0-2.8,7.4-6.3,8.7L83.9,47.4z"/>
	</g>
	<g>
		<path class="st12" d="M65.8,19.9c0.9,0.2,1.8,0.3,2.8,0.1c0.4-0.1,0.9-0.1,1.3,0.1c0.4,0.3,0.4,0.9,0.7,1.3
			c0.6,0.8,1.9,0.3,2.9,0.5c0.7,0.3,1.3,0.8,1.8,1.5c1.3,1.1,3,1.5,4.7,1.1c0.4-0.2,0.9-0.3,1.4-0.2c0.6,0.2,0.8,1,1.1,1.5
			c1,1.8,3.3,2.6,5.2,1.7c0.6,3.1,2,6,4.1,8.4l1.3-3.8c0.5-1.3,0.9-2.7,1.2-4.1c0.3-2.2,0.3-4.4,0-6.6l-0.4-5.1
			c0-0.6-0.1-1.2-0.4-1.7c-0.9-1.8-3.8-1.8-4.8-3.5c-0.2-0.6-0.5-1.1-0.9-1.6c-0.6-0.4-1.3-0.7-2.1-0.6c-3-0.1-6-0.2-9.1-0.2
			c-0.9,0-1.8,0.1-2.6,0.4c-1.5,0.6-2.5,1.9-4,2.4c-1,0.3-2.2,0.2-3.2,0.5c-2.6,0.9-4,5-2.5,7.3c0.2,0.2,0.5,0.3,0.8,0.4
			C65.3,19.7,65.6,19.8,65.8,19.9z"/>
	</g>
	<g>
		<path class="st6" d="M18.5,191.1c2.2-4.1,4-8.3,5.3-12.8L37,182c-1.8,3.6-2.6,7.7-2.3,11.8L22,196.6L18.5,191.1z"/>
	</g>
	<g>
		<path class="st9" d="M30,183.6c-0.1,0-0.1,0-0.2,0l-7-2.3c-0.3-0.1-0.4-0.4-0.3-0.6c0.1-0.3,0.4-0.4,0.6-0.3l7,2.3
			c0.3,0.1,0.4,0.4,0.3,0.6C30.4,183.5,30.2,183.6,30,183.6z"/>
	</g>
	<g>
		<path class="st9" d="M29.2,185.9c-0.1,0-0.1,0-0.2,0l-7-2.3c-0.3-0.1-0.4-0.4-0.3-0.6c0.1-0.3,0.4-0.4,0.6-0.3l7,2.3
			c0.3,0.1,0.4,0.4,0.3,0.6C29.6,185.8,29.4,185.9,29.2,185.9z"/>
	</g>
	<g>
		<path class="st9" d="M28.4,188c-0.1,0-0.1,0-0.2,0l-7.1-2.3c-0.3-0.1-0.4-0.4-0.3-0.6c0.1-0.3,0.4-0.4,0.6-0.3l7.1,2.3
			c0.3,0.1,0.4,0.4,0.3,0.6C28.8,187.9,28.6,188,28.4,188z"/>
	</g>
	<g>
		<path class="st6" d="M67.8,185c0,0,3.7,6.2,5,8.8c1.2,2.4,0.8,6.2-0.9,10l12.5-18.3c0,0-4.6-2.1-6.2-6.1S67.8,185,67.8,185z"/>
	</g>
	<g>
		<path class="st9" d="M68.9,187.4c-0.2,0-0.3-0.1-0.4-0.2c-0.2-0.2-0.1-0.5,0.1-0.7l4-2.9c0.2-0.2,0.5-0.1,0.7,0.1
			c0.2,0.2,0.1,0.5-0.1,0.7l-4,2.9C69.1,187.4,69,187.4,68.9,187.4z"/>
	</g>
	<g>
		<path class="st9" d="M70.1,189.5c-0.2,0-0.3-0.1-0.4-0.2c-0.2-0.2-0.1-0.5,0.1-0.7l4-3c0.2-0.2,0.5-0.1,0.7,0.1
			c0.2,0.2,0.1,0.5-0.1,0.7l-4,3C70.3,189.5,70.2,189.5,70.1,189.5z"/>
	</g>
	<g>
		<path class="st9" d="M71.4,191.4c-0.2,0-0.3-0.1-0.4-0.2c-0.2-0.2-0.1-0.5,0.1-0.7l4.1-3c0.2-0.2,0.5-0.1,0.7,0.1
			c0.2,0.2,0.1,0.5-0.1,0.7l-4.1,3C71.6,191.4,71.5,191.4,71.4,191.4z"/>
	</g>
	<g>
		<path class="st6" d="M61.1,113.5c0,0.4,0.1,0.7,0.4,0.9l0,0c0.9,0.7,2.8,0.5,5.9-0.6c0.4,0,0.8,0,1.2,0c-1,0.5-1.8,1.2-2.4,2.2
			c-1,1.6-1.8,3.4-2.1,5.3v0.1l0.1,0.1c0.2,0.2,0.5,0.3,0.8,0.2c0.9-0.2,1.9-1.5,3-4c0.4-0.7,1.1-1.3,1.9-1.5
			c-0.5,0.3-1,0.7-1.3,1.2c-0.8,1.7-1.4,3.5-1.9,5.3v0.1l0.1,0.1c0.2,0.2,0.5,0.2,0.7,0.2s0.3-0.1,0.5-0.2v0.1l-0.1,0.2l0.2,0.1
			c1.6,0.8,2.5-1,3.2-2.2c0.1-0.2,0.2-0.3,0.2-0.5c0.3-0.7,0.9-1.1,1.6-1.3c1.3-0.1,2.7,0.1,4,0.4c0.2,0.1,1.6,0.3,1.8,0.3
			c3.8,0.9,5-3.8,2.1-6.6c-4.3-0.8-10.3-2.9-12.8-2.1l0,0l-6.8,2L61.1,113.5z"/>
	</g>
	<g>
		<path class="st15" d="M103.6,50.4c0,0-8.9,10.9,1.8,45.8L80,110.5c-3,1.3-4.3,5.6-2.9,9.1l0.5,0.4c0.6,1.4,1.3,1.7,2.5,1.2
			l34.7-13.4c2.4-1,3.9-3.9,3.8-7C117.8,88.4,115,58,103.6,50.4z"/>
	</g>
	<g>
		<path class="st15" d="M84.3,67.6c0,0.1,0.1,0.1,0.1,0.2l3,2.6l0,0c0.1,0.1,0.1,0.1,0.2,0.1s0.2,0,0.2,0l3.8-1.3
			c0.1,0,0.1-0.1,0.2-0.1s0.1-0.1,0.1-0.2l0.8-3.9l0,0c0-0.1,0-0.2,0-0.2c0-0.1-0.1-0.1-0.1-0.2l-3-2.6l0,0
			c-0.1-0.1-0.1-0.1-0.2-0.1s-0.2,0-0.2,0l0,0l-3.8,1.2c-0.2,0-0.3,0.2-0.3,0.3l0,0l-0.8,3.9C84.3,67.5,84.3,67.6,84.3,67.6"/>
	</g>
	<g>
		<path class="st6" d="M36.4,183.3c0,0,1.7-2-0.3-2.8c0,0-7.4-2.9-12-3.1l-0.6,1.7L36.4,183.3z"/>
	</g>
	<g>
		<path class="st6" d="M34.8,189.2c0.5-2.2,1.2-4.4,2-6.5l-2.6,1.8l0.3,4.4L34.8,189.2z"/>
	</g>
	<g>
		<path class="st9" d="M49.5,97.2c0,0,3.8,3.6,7.1,4.3l0,0c0,0,0.2,0.1,0.3-0.4c0.1-0.3,0-0.6-0.2-0.8l-6.5-3.9c0,0-0.2-0.1-0.5,0.2
			C49.7,96.7,49.4,97,49.5,97.2z"/>
	</g>
	<g>
		<path class="st9" d="M77,120.1c0,0,0.9,0.5,0.6-0.9c0,0-0.6-4.7,0.7-6.3c0,0-0.2-0.7-1.1-0.3s-1,3.9-1,3.9S76.1,119.5,77,120.1z"
			/>
	</g>
	<g>
		<path class="st6" d="M55.6,30.8c-1,13,9.3,24.4,23.1,25.5s25.8-8.5,26.8-21.5c0,0-5.1,18.1-26.4,17c0,0-17.8-0.5-23.1-19
			L55.6,30.8z"/>
	</g>
	<g class="st21">
		
			<ellipse transform="matrix(7.897916e-02 -0.9969 0.9969 7.897916e-02 46.2358 106.7462)" class="st9" cx="80.9" cy="28.4" rx="23.5" ry="25.4"/>
	</g>
	<g>
		<path class="st9" d="M81.2,52.4c-0.7,0-1.5,0-2.2-0.1c-14.2-1.1-25-12.8-23.9-26c0.5-6.4,3.7-12.2,8.9-16.3
			c5.2-4.1,11.9-6.1,18.8-5.5C89.6,5,95.9,8,100.4,12.9c4.5,4.9,6.7,11.1,6.2,17.5c-0.5,6.4-3.7,12.2-8.9,16.3
			C93.1,50.4,87.3,52.4,81.2,52.4z M80.5,5.4c-5.9,0-11.4,1.9-15.9,5.4c-5,4-8.1,9.5-8.5,15.6c-1,12.6,9.3,23.8,23,24.9
			c6.6,0.5,13.1-1.4,18.1-5.3c5-4,8.1-9.5,8.5-15.6s-1.6-12.1-6-16.8c-4.3-4.7-10.4-7.6-17-8.1C81.9,5.4,81.2,5.4,80.5,5.4z"/>
	</g>
	<g class="st3">
		<path class="st9" d="M67.3,8.4c0,0,33.6,5.2,33.7,34.5c0,0,12.8-17-3.6-32.1C97.4,10.9,84-0.3,67.3,8.4z"/>
		<path class="st9" d="M101,43C101,43,101,43,101,43c-0.1,0-0.1-0.1-0.1-0.1c-0.1-15.1-9.2-23.6-16.8-28.1
			c-8.3-4.9-16.7-6.2-16.8-6.2c-0.1,0-0.1,0-0.1-0.1c0-0.1,0-0.1,0.1-0.1c14.6-7.6,26.7-0.2,30.1,2.3c0.1,0,0.1,0.1,0.1,0.1
			c0,0,0,0,0,0c8.5,7.8,9,16.2,8,21.8C104.3,38.6,101.1,42.9,101,43C101.1,43,101,43,101,43z M67.7,8.3c1.7,0.3,9.1,1.9,16.5,6.2
			c7.6,4.5,16.7,13,16.9,28c0.7-1.1,3.2-4.9,4.1-10c1-5.6,0.5-13.8-7.9-21.6c0,0-0.1-0.1-0.2-0.1C93.8,8.4,82,1.1,67.7,8.3z"/>
	</g>
</g>
</svg>
